<?xml version="1.0" encoding="UTF-8" standalone="no"?>
<!-- Created with Inkscape (http://www.inkscape.org/) -->

<svg
   xmlns:dc="http://purl.org/dc/elements/1.1/"
   xmlns:cc="http://creativecommons.org/ns#"
   xmlns:rdf="http://www.w3.org/1999/02/22-rdf-syntax-ns#"
   xmlns:svg="http://www.w3.org/2000/svg"
   xmlns="http://www.w3.org/2000/svg"
   xmlns:xlink="http://www.w3.org/1999/xlink"
   xmlns:sodipodi="http://sodipodi.sourceforge.net/DTD/sodipodi-0.dtd"
   xmlns:inkscape="http://www.inkscape.org/namespaces/inkscape"
   width="700"
   height="450"
   id="svg2"
   version="1.1"
   inkscape:version="0.48.1 r9760"
   sodipodi:docname="banana.svg"
   inkscape:export-filename="/home/ab/work/bungee/art/banana-small.png"
   inkscape:export-xdpi="7.1036191"
   inkscape:export-ydpi="7.1036191">
  <defs
     id="defs4">
    <linearGradient
       inkscape:collect="always"
       id="linearGradient4304">
      <stop
         style="stop-color:#000000;stop-opacity:1"
         offset="0"
         id="stop4306" />
      <stop
         style="stop-color:#000000;stop-opacity:0"
         offset="1"
         id="stop4308" />
    </linearGradient>
    <linearGradient
       inkscape:collect="always"
       id="linearGradient3952">
      <stop
         style="stop-color:#000000;stop-opacity:1;"
         offset="0"
         id="stop3954" />
      <stop
         style="stop-color:#000000;stop-opacity:0;"
         offset="1"
         id="stop3956" />
    </linearGradient>
    <inkscape:path-effect
       effect="skeletal"
       id="path-effect3878"
       is_visible="true"
       pattern="M 0,5 C 0,2.24 2.24,0 5,0 7.76,0 10,2.24 10,5 10,7.76 7.76,10 5,10 2.24,10 0,7.76 0,5 z"
       copytype="single_stretched"
       prop_scale="1"
       scale_y_rel="false"
       spacing="0"
       normal_offset="0"
       tang_offset="0"
       prop_units="false"
       vertical_pattern="false"
       fuse_tolerance="0" />
    <inkscape:path-effect
       effect="skeletal"
       id="path-effect3858"
       is_visible="true"
       pattern="M 0,5 C 0,2.24 2.24,0 5,0 7.76,0 10,2.24 10,5 10,7.76 7.76,10 5,10 2.24,10 0,7.76 0,5 z"
       copytype="single_stretched"
       prop_scale="1"
       scale_y_rel="false"
       spacing="0"
       normal_offset="0"
       tang_offset="0"
       prop_units="false"
       vertical_pattern="false"
       fuse_tolerance="0" />
    <inkscape:path-effect
       effect="skeletal"
       id="path-effect3846"
       is_visible="true"
       pattern="m -7.1428572,13.571429 c 0,-2.76 2.24,-5.0000004 5,-5.0000004 2.76000005,0 5,2.2400004 5,5.0000004 0,2.76 -2.23999995,5 -5,5 -2.76,0 -5,-2.24 -5,-5 z"
       copytype="single_stretched"
       prop_scale="1"
       scale_y_rel="false"
       spacing="0"
       normal_offset="0"
       tang_offset="0"
       prop_units="false"
       vertical_pattern="false"
       fuse_tolerance="0" />
    <inkscape:path-effect
       effect="skeletal"
       id="path-effect3842"
       is_visible="true"
       pattern="M 0,5 C 0,2.24 2.24,0 5,0 7.76,0 10,2.24 10,5 10,7.76 7.76,10 5,10 2.24,10 0,7.76 0,5 z"
       copytype="single_stretched"
       prop_scale="1"
       scale_y_rel="false"
       spacing="0"
       normal_offset="0"
       tang_offset="0"
       prop_units="false"
       vertical_pattern="false"
       fuse_tolerance="0" />
    <linearGradient
       inkscape:collect="always"
       id="linearGradient3062">
      <stop
         style="stop-color:#af9926;stop-opacity:1;"
         offset="0"
         id="stop3064" />
      <stop
         style="stop-color:#af9926;stop-opacity:0;"
         offset="1"
         id="stop3066" />
    </linearGradient>
    <linearGradient
       inkscape:collect="always"
       id="linearGradient3052">
      <stop
         style="stop-color:#9a7c17;stop-opacity:1;"
         offset="0"
         id="stop3054" />
      <stop
         style="stop-color:#9a7c17;stop-opacity:0;"
         offset="1"
         id="stop3056" />
    </linearGradient>
    <linearGradient
       inkscape:collect="always"
       id="linearGradient3042">
      <stop
         style="stop-color:#f4ca49;stop-opacity:1;"
         offset="0"
         id="stop3044" />
      <stop
         style="stop-color:#9a7c17;stop-opacity:1"
         offset="1"
         id="stop3046" />
    </linearGradient>
    <linearGradient
       inkscape:collect="always"
       id="linearGradient3032">
      <stop
         style="stop-color:#af9926;stop-opacity:1;"
         offset="0"
         id="stop3034" />
      <stop
         style="stop-color:#af9926;stop-opacity:0;"
         offset="1"
         id="stop3036" />
    </linearGradient>
    <linearGradient
       inkscape:collect="always"
       id="linearGradient3018">
      <stop
         style="stop-color:#af9926;stop-opacity:1;"
         offset="0"
         id="stop3020" />
      <stop
         style="stop-color:#af9926;stop-opacity:0;"
         offset="1"
         id="stop3022" />
    </linearGradient>
    <linearGradient
       inkscape:collect="always"
       xlink:href="#linearGradient3018"
       id="linearGradient3024"
       x1="682.85712"
       y1="383.79074"
       x2="534.28571"
       y2="505.21933"
       gradientUnits="userSpaceOnUse" />
    <linearGradient
       inkscape:collect="always"
       xlink:href="#linearGradient3018"
       id="linearGradient3028"
       gradientUnits="userSpaceOnUse"
       x1="32.857117"
       y1="439.50504"
       x2="69.999992"
       y2="522.36218" />
    <linearGradient
       inkscape:collect="always"
       xlink:href="#linearGradient3032"
       id="linearGradient3038"
       x1="661.42859"
       y1="316.64789"
       x2="642.85712"
       y2="405.21936"
       gradientUnits="userSpaceOnUse" />
    <linearGradient
       inkscape:collect="always"
       xlink:href="#linearGradient3042"
       id="linearGradient3048"
       x1="607.14282"
       y1="360.93362"
       x2="640"
       y2="268.07648"
       gradientUnits="userSpaceOnUse" />
    <linearGradient
       inkscape:collect="always"
       xlink:href="#linearGradient3052"
       id="linearGradient3058"
       x1="8.5714302"
       y1="410.93359"
       x2="108.57143"
       y2="528.07648"
       gradientUnits="userSpaceOnUse" />
    <radialGradient
       inkscape:collect="always"
       xlink:href="#linearGradient3062"
       id="radialGradient3838"
       cx="375.68546"
       cy="511.78149"
       fx="375.68546"
       fy="511.78149"
       r="349.65521"
       gradientTransform="matrix(0.5986221,-0.0606819,0.02787924,0.27502649,124.0508,399.34801)"
       gradientUnits="userSpaceOnUse" />
    <filter
       inkscape:collect="always"
       id="filter3852"
       x="-0.27052635"
       width="1.5410527"
       y="-0.21566431"
       height="1.4313287"
       color-interpolation-filters="sRGB">
      <feGaussianBlur
         inkscape:collect="always"
         stdDeviation="6.9127881"
         id="feGaussianBlur3854" />
    </filter>
    <filter
       inkscape:collect="always"
       id="filter3894"
       color-interpolation-filters="sRGB">
      <feGaussianBlur
         inkscape:collect="always"
         stdDeviation="0.3639562"
         id="feGaussianBlur3896" />
    </filter>
    <filter
       inkscape:collect="always"
       id="filter3922"
       x="-0.074342132"
       width="1.1486843"
       y="-0.31100869"
       height="1.6220174"
       color-interpolation-filters="sRGB">
      <feGaussianBlur
         inkscape:collect="always"
         stdDeviation="15.621825"
         id="feGaussianBlur3924" />
    </filter>
    <filter
       inkscape:collect="always"
       id="filter3928"
       x="-0.12129661"
       width="1.2425932"
       y="-0.11873082"
       height="1.2374616"
       color-interpolation-filters="sRGB">
      <feGaussianBlur
         inkscape:collect="always"
         stdDeviation="4.6593863"
         id="feGaussianBlur3930" />
    </filter>
    <filter
       inkscape:collect="always"
       id="filter3946"
       x="-0.1868591"
       width="1.3737181"
       y="-0.17732494"
       height="1.3546499"
       color-interpolation-filters="sRGB">
      <feGaussianBlur
         inkscape:collect="always"
         stdDeviation="8.6699859"
         id="feGaussianBlur3948" />
    </filter>
    <linearGradient
       inkscape:collect="always"
       xlink:href="#linearGradient3952"
       id="linearGradient3958"
       x1="363.65494"
       y1="692.74786"
       x2="372.74628"
       y2="557.38745"
       gradientUnits="userSpaceOnUse" />
    <filter
       inkscape:collect="always"
       id="filter3980"
       x="-0.1184598"
       width="1.2369196"
       y="-0.21383069"
       height="1.4276614"
       color-interpolation-filters="sRGB">
      <feGaussianBlur
         inkscape:collect="always"
         stdDeviation="34.516738"
         id="feGaussianBlur3982" />
    </filter>
    <clipPath
       clipPathUnits="userSpaceOnUse"
       id="clipPath3986">
      <path
         style="fill:url(#radialGradient3990);fill-opacity:1;stroke:none"
         d="m 1.4285714,410.93361 c 4.1550214,-9.20742 11.3270466,-21.42857 21.4285716,-21.42857 16.16244,0 21.9293,23.86729 34.285714,34.28571 18.282637,15.41517 38.390886,28.59784 58.571433,41.42858 23.57576,14.9894 47.04814,30.73304 72.85714,41.42857 31.48368,13.04718 64.77127,22.78391 98.57143,27.14285 38.72979,4.99467 78.86965,6.32418 117.14285,-1.42857 24.70047,-5.00341 47.57763,-17.06558 70,-28.57143 21.51129,-11.03833 42.52303,-23.49957 61.42858,-38.57142 21.06313,-16.79191 40.37293,-36.06222 57.14285,-57.14286 11.18693,-14.06254 21.00716,-29.41446 28.57143,-45.71429 11.15714,-24.04189 2.01111,-61.34987 24.28572,-75.71428 10.47405,-6.75448 30.54044,-6.28486 37.14285,4.28571 4.54777,7.28107 -7.69832,15.74559 -8.57143,24.28572 -1.07535,10.51832 2.44024,21.01773 4.28572,31.42857 2.72261,15.35897 6.56104,30.49968 10,45.71428 3.23415,14.3085 10.32107,28.19121 10,42.85715 -0.54115,24.71932 -8.42622,49.57942 -20,71.42857 -13.12857,24.78431 -32.99863,46.02424 -54.28572,64.28571 -30.49679,26.16215 -66.55487,45.63338 -102.85714,62.85714 -25.98847,12.33033 -53.31986,22.46092 -81.42857,28.57143 -25.69827,5.58651 -52.27796,7.65621 -78.57143,7.14286 C 328.29942,668.85823 295.15202,664.0641 262.85714,656.6479 217.36012,646.19996 171.0845,634.52526 130,612.36218 102.24756,597.3911 76.515176,577.48999 55.714286,553.79075 36.697633,532.12436 22.422914,506.15443 11.428571,479.50504 5.4382958,464.9851 1.4317498,449.43243 0,433.79075 -0.69585563,426.18862 -1.7114567,417.89183 1.4285714,410.93361 z"
         id="path3988"
         inkscape:connector-curvature="0"
         sodipodi:nodetypes="cccccccccccccccccccccccccccc" />
    </clipPath>
    <radialGradient
       inkscape:collect="always"
       xlink:href="#linearGradient3062"
       id="radialGradient3990"
       gradientUnits="userSpaceOnUse"
       gradientTransform="matrix(0.5986221,-0.0606819,0.02787924,0.27502649,124.0508,399.34801)"
       cx="375.68546"
       cy="511.78149"
       fx="375.68546"
       fy="511.78149"
       r="349.65521" />
    <filter
       inkscape:collect="always"
       id="filter3994"
       x="-0.082806282"
       width="1.1656126"
       y="-0.21785127"
       height="1.4357024"
       color-interpolation-filters="sRGB">
      <feGaussianBlur
         inkscape:collect="always"
         stdDeviation="6.4872589"
         id="feGaussianBlur3996" />
    </filter>
    <filter
       inkscape:collect="always"
       id="filter4024"
       x="-0.99857992"
       width="2.9971597"
       y="-0.31337965"
       height="1.6267593"
       color-interpolation-filters="sRGB">
      <feGaussianBlur
         inkscape:collect="always"
         stdDeviation="6.480604"
         id="feGaussianBlur4026" />
    </filter>
    <filter
       inkscape:collect="always"
       id="filter4048"
       color-interpolation-filters="sRGB">
      <feGaussianBlur
         inkscape:collect="always"
         stdDeviation="0.54122004"
         id="feGaussianBlur4050" />
    </filter>
    <filter
       inkscape:collect="always"
       id="filter4114"
       x="-0.44756162"
       width="1.8951232"
       y="-0.30109361"
       height="1.6021872"
       color-interpolation-filters="sRGB">
      <feGaussianBlur
         inkscape:collect="always"
         stdDeviation="0.53611544"
         id="feGaussianBlur4116" />
    </filter>
    <filter
       inkscape:collect="always"
       id="filter4133"
       x="-0.405"
       width="1.8099999"
       y="-0.324"
       height="1.648"
       color-interpolation-filters="sRGB">
      <feGaussianBlur
         inkscape:collect="always"
         stdDeviation="0.34092649"
         id="feGaussianBlur4135" />
    </filter>
    <filter
       inkscape:collect="always"
       id="filter4145"
       x="-0.32790616"
       width="1.6558123"
       y="-0.39905781"
       height="1.7981156"
       color-interpolation-filters="sRGB">
      <feGaussianBlur
         inkscape:collect="always"
         stdDeviation="1.3881558"
         id="feGaussianBlur4147" />
    </filter>
    <filter
       inkscape:collect="always"
       id="filter4184"
       x="-0.30021495"
       width="1.6004299"
       y="-0.18641832"
       height="1.3728366"
       color-interpolation-filters="sRGB">
      <feGaussianBlur
         inkscape:collect="always"
         stdDeviation="5.580918"
         id="feGaussianBlur4186" />
    </filter>
    <linearGradient
       inkscape:collect="always"
       xlink:href="#linearGradient3032"
       id="linearGradient4210"
       gradientUnits="userSpaceOnUse"
       x1="661.42859"
       y1="316.64789"
       x2="642.85712"
       y2="405.21936" />
    <linearGradient
       inkscape:collect="always"
       xlink:href="#linearGradient3042"
       id="linearGradient4212"
       gradientUnits="userSpaceOnUse"
       x1="607.14282"
       y1="360.93362"
       x2="640"
       y2="268.07648" />
    <linearGradient
       inkscape:collect="always"
       xlink:href="#linearGradient3052"
       id="linearGradient4214"
       gradientUnits="userSpaceOnUse"
       x1="8.5714302"
       y1="410.93359"
       x2="108.57143"
       y2="528.07648" />
    <radialGradient
       inkscape:collect="always"
       xlink:href="#linearGradient3062"
       id="radialGradient4216"
       gradientUnits="userSpaceOnUse"
       gradientTransform="matrix(0.5986221,-0.0606819,0.02787924,0.27502649,124.0508,399.34801)"
       cx="375.68546"
       cy="511.78149"
       fx="375.68546"
       fy="511.78149"
       r="349.65521" />
    <linearGradient
       inkscape:collect="always"
       xlink:href="#linearGradient3952"
       id="linearGradient4218"
       gradientUnits="userSpaceOnUse"
       x1="363.65494"
       y1="692.74786"
       x2="372.74628"
       y2="557.38745" />
    <filter
       inkscape:collect="always"
       id="filter4298"
       x="-0.039723128"
       width="1.0794463"
       y="-0.47667757"
       height="1.9533552"
       color-interpolation-filters="sRGB">
      <feGaussianBlur
         inkscape:collect="always"
         stdDeviation="10.214519"
         id="feGaussianBlur4300" />
    </filter>
    <linearGradient
       inkscape:collect="always"
       xlink:href="#linearGradient4304"
       id="linearGradient4310"
       x1="328.57144"
       y1="490"
       x2="328.57144"
       y2="445"
       gradientUnits="userSpaceOnUse" />
    <radialGradient
       inkscape:collect="always"
       xlink:href="#linearGradient3062"
       id="radialGradient4327"
       gradientUnits="userSpaceOnUse"
       gradientTransform="matrix(0.57943894,-0.05873732,0.02698583,0.26621312,132.13478,791.07387)"
       cx="375.68546"
       cy="511.78149"
       fx="375.68546"
       fy="511.78149"
       r="349.65521" />
    <linearGradient
       inkscape:collect="always"
       xlink:href="#linearGradient3052"
       id="linearGradient4330"
       gradientUnits="userSpaceOnUse"
       x1="8.5714302"
       y1="410.93359"
       x2="108.57143"
       y2="528.07648"
       gradientTransform="matrix(0.96795447,0,0,0.96795447,12.05926,404.52318)" />
    <linearGradient
       inkscape:collect="always"
       xlink:href="#linearGradient3042"
       id="linearGradient4333"
       gradientUnits="userSpaceOnUse"
       x1="607.14282"
       y1="360.93362"
       x2="640"
       y2="268.07648"
       gradientTransform="matrix(0.96795447,0,0,0.96795447,12.05926,404.52318)" />
    <linearGradient
       inkscape:collect="always"
       xlink:href="#linearGradient3032"
       id="linearGradient4336"
       gradientUnits="userSpaceOnUse"
       x1="661.42859"
       y1="316.64789"
       x2="642.85712"
       y2="405.21936"
       gradientTransform="matrix(0.96795447,0,0,0.96795447,12.05926,404.52318)" />
    <linearGradient
       inkscape:collect="always"
       xlink:href="#linearGradient3952"
       id="linearGradient4340"
       gradientUnits="userSpaceOnUse"
       x1="363.65494"
       y1="692.74786"
       x2="372.74628"
       y2="557.38745" />
    <linearGradient
       inkscape:collect="always"
       xlink:href="#linearGradient3952"
       id="linearGradient4376"
       gradientUnits="userSpaceOnUse"
       x1="363.65494"
       y1="692.74786"
       x2="372.74628"
       y2="557.38745" />
    <linearGradient
       inkscape:collect="always"
       xlink:href="#linearGradient3952"
       id="linearGradient3185"
       gradientUnits="userSpaceOnUse"
       x1="363.65494"
       y1="692.74786"
       x2="372.74628"
       y2="557.38745" />
    <linearGradient
       inkscape:collect="always"
       xlink:href="#linearGradient3032"
       id="linearGradient3218"
       gradientUnits="userSpaceOnUse"
       gradientTransform="matrix(0.96795447,0,0,0.96795447,8.9981781,352.45019)"
       x1="661.42859"
       y1="316.64789"
       x2="642.85712"
       y2="405.21936" />
    <linearGradient
       inkscape:collect="always"
       xlink:href="#linearGradient3042"
       id="linearGradient3220"
       gradientUnits="userSpaceOnUse"
       gradientTransform="matrix(0.96795447,0,0,0.96795447,8.9981781,352.45019)"
       x1="607.14282"
       y1="360.93362"
       x2="640"
       y2="268.07648" />
    <linearGradient
       inkscape:collect="always"
       xlink:href="#linearGradient3052"
       id="linearGradient3222"
       gradientUnits="userSpaceOnUse"
       gradientTransform="matrix(0.96795447,0,0,0.96795447,8.9981781,352.45019)"
       x1="8.5714302"
       y1="410.93359"
       x2="108.57143"
       y2="528.07648" />
    <radialGradient
       inkscape:collect="always"
       xlink:href="#linearGradient3062"
       id="radialGradient3224"
       gradientUnits="userSpaceOnUse"
       gradientTransform="matrix(0.57943894,-0.05873732,0.02698583,0.26621312,129.0737,739.00088)"
       cx="375.68546"
       cy="511.78149"
       fx="375.68546"
       fy="511.78149"
       r="349.65521" />
    <linearGradient
       inkscape:collect="always"
       xlink:href="#linearGradient3952"
       id="linearGradient3226"
       gradientUnits="userSpaceOnUse"
       x1="363.65494"
       y1="692.74786"
       x2="372.74628"
       y2="557.38745" />
    <linearGradient
       inkscape:collect="always"
       xlink:href="#linearGradient3032"
       id="linearGradient3251"
       gradientUnits="userSpaceOnUse"
       gradientTransform="matrix(0.96795447,0,0,0.96795447,8.9981781,352.45019)"
       x1="661.42859"
       y1="316.64789"
       x2="642.85712"
       y2="405.21936" />
    <linearGradient
       inkscape:collect="always"
       xlink:href="#linearGradient3042"
       id="linearGradient3253"
       gradientUnits="userSpaceOnUse"
       gradientTransform="matrix(0.96795447,0,0,0.96795447,8.9981781,352.45019)"
       x1="607.14282"
       y1="360.93362"
       x2="640"
       y2="268.07648" />
    <linearGradient
       inkscape:collect="always"
       xlink:href="#linearGradient3052"
       id="linearGradient3255"
       gradientUnits="userSpaceOnUse"
       gradientTransform="matrix(0.96795447,0,0,0.96795447,8.9981781,352.45019)"
       x1="8.5714302"
       y1="410.93359"
       x2="108.57143"
       y2="528.07648" />
    <radialGradient
       inkscape:collect="always"
       xlink:href="#linearGradient3062"
       id="radialGradient3257"
       gradientUnits="userSpaceOnUse"
       gradientTransform="matrix(0.57943894,-0.05873732,0.02698583,0.26621312,129.0737,739.00088)"
       cx="375.68546"
       cy="511.78149"
       fx="375.68546"
       fy="511.78149"
       r="349.65521" />
    <linearGradient
       inkscape:collect="always"
       xlink:href="#linearGradient3952"
       id="linearGradient3259"
       gradientUnits="userSpaceOnUse"
       x1="363.65494"
       y1="692.74786"
       x2="372.74628"
       y2="557.38745" />
  </defs>
  <sodipodi:namedview
     id="base"
     pagecolor="#ffffff"
     bordercolor="#666666"
     borderopacity="1.0"
     inkscape:pageopacity="0.0"
     inkscape:pageshadow="2"
     inkscape:zoom="0.49497475"
     inkscape:cx="434.2169"
     inkscape:cy="491.89837"
     inkscape:document-units="px"
     inkscape:current-layer="layer1"
     showgrid="false"
     inkscape:window-width="1280"
     inkscape:window-height="748"
     inkscape:window-x="0"
     inkscape:window-y="26"
     inkscape:window-maximized="1" />
  <metadata
     id="metadata7">
    <rdf:RDF>
      <cc:Work
         rdf:about="">
        <dc:format>image/svg+xml</dc:format>
        <dc:type
           rdf:resource="http://purl.org/dc/dcmitype/StillImage" />
        <dc:title></dc:title>
      </cc:Work>
    </rdf:RDF>
  </metadata>
  <g
     inkscape:label="Layer 1"
     inkscape:groupmode="layer"
     id="layer1"
     transform="translate(0,-602.36218)">
    <path
       sodipodi:type="arc"
       style="fill:#4d4d4d;fill-opacity:1;stroke:none;filter:url(#filter4298)"
       id="path4220"
       sodipodi:cx="351.42856"
       sodipodi:cy="401.42856"
       sodipodi:rx="308.57144"
       sodipodi:ry="25.714285"
       d="m 660,401.42856 a 308.57144,25.714285 0 1 1 -617.142883,0 308.57144,25.714285 0 1 1 617.142883,0 z"
       transform="matrix(0.47256849,0.00582508,-0.00609909,0.44742497,139.61666,807.82105)" />
    <g
       id="g3155"
       transform="matrix(-0.39061041,-0.41270623,-0.41270623,0.39061041,764.8488,644.80278)"
       inkscape:export-filename="/home/ab/work/bungee/art/banana-small.png"
       inkscape:export-xdpi="5.7600002"
       inkscape:export-ydpi="5.7600002">
      <path
         sodipodi:nodetypes="cccccccccccccccccccccccccccc"
         inkscape:connector-curvature="0"
         id="path2996"
         d="m 10.38097,750.21521 c 4.021872,-8.91237 10.964066,-20.74188 20.741882,-20.74188 15.644506,0 21.226564,23.10245 33.187011,33.18701 17.69676,14.92118 37.160637,27.6814 56.694477,40.10098 22.82027,14.50905 45.54046,29.74818 70.5224,40.10097 30.47476,12.62908 62.69564,22.05379 95.41265,26.27304 37.48868,4.83461 76.34224,6.12152 113.38896,-1.38279 23.90893,-4.84308 46.05297,-16.51871 67.7568,-27.65584 20.82195,-10.68461 41.16036,-22.74652 59.46008,-37.33538 20.38814,-16.25381 39.07916,-34.90659 55.31167,-55.31169 10.82843,-13.6119 20.33398,-28.47186 27.65584,-44.24936 10.79961,-23.27145 1.94667,-59.38387 23.50748,-73.28797 10.13839,-6.53803 29.56175,-6.08346 35.95258,4.14837 4.40203,7.04775 -7.45162,15.24102 -8.29675,23.50747 -1.04089,10.18126 2.36204,20.34421 4.14838,30.42143 2.63536,14.86679 6.35079,29.5223 9.67955,44.24935 3.13051,13.84997 9.99032,27.2878 9.67954,41.48377 -0.52381,23.92716 -8.1562,47.99061 -19.35909,69.1396 -12.70786,23.99008 -31.94117,44.54937 -52.54611,62.22563 -29.51949,25.32378 -64.42208,44.17109 -99.56102,60.84289 -25.15566,11.9352 -51.6112,21.7411 -78.81915,27.6558 -24.87476,5.4075 -50.60269,7.41079 -76.05357,6.91399 -32.06751,-0.62609 -64.15268,-5.26659 -95.41266,-12.44519 -44.03904,-10.1131 -88.83173,-21.4136 -128.59966,-42.86652 C 107.96917,930.69757 83.061385,911.43421 62.927071,888.49442 44.519816,867.52234 30.702538,842.38462 20.060515,816.58924 14.262201,802.53459 10.384047,787.48031 8.9981781,772.33989 8.3246221,764.98137 7.3415661,756.95045 10.38097,750.21521 z"
         style="fill:#f0c744;fill-opacity:1;stroke:none" />
      <path
         sodipodi:nodetypes="cccccccccccccccccccccccccccc"
         inkscape:connector-curvature="0"
         id="path2998"
         d="m 32.505643,729.47333 c 0.07435,-5.25489 4.53846,-11.35487 9.679545,-12.44513 14.322827,-3.0374 25.38109,14.70108 38.71818,20.74188 17.93688,8.1242 37.294332,12.79775 55.311682,20.74189 23.20033,10.22939 44.31584,24.9046 67.75681,34.5698 23.71821,9.77951 48.39261,17.30972 73.28799,23.50747 17.72262,4.41206 35.6857,8.81731 53.92888,9.67954 22.17662,1.04812 44.596,-1.2163 66.37403,-5.53118 20.87699,-4.13635 41.2625,-11.01831 60.84285,-19.35908 16.88801,-7.1939 33.68918,-15.29053 48.39772,-26.27304 15.14717,-11.31002 26.37481,-27.10309 40.10098,-40.10097 13.03556,-12.3439 29.56495,-21.41679 40.10097,-35.95261 7.38845,-10.19332 10.59264,-22.858 15.21071,-34.5698 3.58273,-9.0861 10.11867,-17.89877 9.67954,-27.65584 -0.25041,-5.56382 -6.15338,-9.69345 -6.91394,-15.21072 -0.82792,-6.0058 -2.66116,-15.2734 2.76558,-17.97629 6.09177,-3.03413 13.3287,4.70808 17.97629,9.67955 3.80344,4.06848 6.52282,9.65502 6.91396,15.21071 1.72085,24.44263 -10.75779,48.14559 -20.74189,70.52239 -7.50542,16.82151 -5.54812,36.42244 -16.5935,51.16331 -14.87399,19.85044 -43.41737,34.99159 -62.22565,51.16331 -17.15767,14.75249 -36.79227,26.5686 -56.69447,37.33538 -23.42265,12.67129 -47.24629,26.23537 -73.28797,31.80423 -37.86485,8.09717 -77.70337,5.94529 -116.15455,1.38279 C 251.52597,867.69887 216.15582,859.3267 183.22999,845.62787 150.97097,832.20646 122.77515,810.53643 93.348497,791.69897 83.01181,785.08195 71.753233,779.48533 62.927071,770.95709 50.595545,759.0418 32.26306,746.61923 32.505643,729.47333 z"
         style="fill:#f4ca49;fill-opacity:1;stroke:none" />
      <path
         style="fill:url(#linearGradient3251);fill-opacity:1;stroke:none"
         d="m 10.38097,750.21521 c 4.021872,-8.91237 10.964066,-20.74188 20.741882,-20.74188 15.644506,0 21.226564,23.10245 33.187011,33.18701 17.69676,14.92118 37.160637,27.6814 56.694477,40.10098 22.82027,14.50905 45.54046,29.74818 70.5224,40.10097 30.47476,12.62908 62.69564,22.05379 95.41265,26.27304 37.48868,4.83461 76.34224,6.12152 113.38896,-1.38279 23.90893,-4.84308 46.05297,-16.51871 67.7568,-27.65584 20.82195,-10.68461 41.16036,-22.74652 59.46008,-37.33538 20.38814,-16.25381 39.07916,-34.90659 55.31167,-55.31169 10.82843,-13.6119 20.33398,-28.47186 27.65584,-44.24936 10.79961,-23.27145 1.94667,-59.38387 23.50748,-73.28797 10.13839,-6.53803 29.56175,-6.08346 35.95258,4.14837 4.40203,7.04775 -7.45162,15.24102 -8.29675,23.50747 -1.04089,10.18126 2.36204,20.34421 4.14838,30.42143 2.63536,14.86679 6.35079,29.5223 9.67955,44.24935 3.13051,13.84997 9.99032,27.2878 9.67954,41.48377 -0.52381,23.92716 -8.1562,47.99061 -19.35909,69.1396 -12.70786,23.99008 -31.94117,44.54937 -52.54611,62.22563 -29.51949,25.32378 -64.42208,44.17109 -99.56102,60.84289 -25.15566,11.9352 -51.6112,21.7411 -78.81915,27.6558 -24.87476,5.4075 -50.60269,7.41079 -76.05357,6.91399 -32.06751,-0.62609 -64.15268,-5.26659 -95.41266,-12.44519 -44.03904,-10.1131 -88.83173,-21.4136 -128.59966,-42.86652 C 107.96917,930.69757 83.061385,911.43421 62.927071,888.49442 44.519816,867.52234 30.702538,842.38462 20.060515,816.58924 14.262201,802.53459 10.384047,787.48031 8.9981781,772.33989 8.3246221,764.98137 7.3415661,756.95045 10.38097,750.21521 z"
         id="path3030"
         inkscape:connector-curvature="0"
         sodipodi:nodetypes="cccccccccccccccccccccccccccc" />
      <path
         style="fill:url(#linearGradient3253);fill-opacity:1;stroke:none"
         d="m 32.505643,729.47333 c 0.07435,-5.25489 4.53846,-11.35487 9.679545,-12.44513 14.322827,-3.0374 25.38109,14.70108 38.71818,20.74188 17.93688,8.1242 37.294332,12.79775 55.311682,20.74189 23.20033,10.22939 44.31584,24.9046 67.75681,34.5698 23.71821,9.77951 48.39261,17.30972 73.28799,23.50747 17.72262,4.41206 35.6857,8.81731 53.92888,9.67954 22.17662,1.04812 44.596,-1.2163 66.37403,-5.53118 20.87699,-4.13635 41.2625,-11.01831 60.84285,-19.35908 16.88801,-7.1939 33.68918,-15.29053 48.39772,-26.27304 15.14717,-11.31002 26.37481,-27.10309 40.10098,-40.10097 13.03556,-12.3439 29.56495,-21.41679 40.10097,-35.95261 7.38845,-10.19332 10.59264,-22.858 15.21071,-34.5698 3.58273,-9.0861 10.11867,-17.89877 9.67954,-27.65584 -0.25041,-5.56382 -6.15338,-9.69345 -6.91394,-15.21072 -0.82792,-6.0058 -2.66116,-15.2734 2.76558,-17.97629 6.09177,-3.03413 13.3287,4.70808 17.97629,9.67955 3.80344,4.06848 6.52282,9.65502 6.91396,15.21071 1.72085,24.44263 -10.75779,48.14559 -20.74189,70.52239 -7.50542,16.82151 -5.54812,36.42244 -16.5935,51.16331 -14.87399,19.85044 -43.41737,34.99159 -62.22565,51.16331 -17.15767,14.75249 -36.79227,26.5686 -56.69447,37.33538 -23.42265,12.67129 -47.24629,26.23537 -73.28797,31.80423 -37.86485,8.09717 -77.70337,5.94529 -116.15455,1.38279 C 251.52597,867.69887 216.15582,859.3267 183.22999,845.62787 150.97097,832.20646 122.77515,810.53643 93.348497,791.69897 83.01181,785.08195 71.753233,779.48533 62.927071,770.95709 50.595545,759.0418 32.26306,746.61923 32.505643,729.47333 z"
         id="path3040"
         inkscape:connector-curvature="0"
         sodipodi:nodetypes="cccccccccccccccccccccccccccc" />
      <path
         style="fill:url(#linearGradient3255);fill-opacity:1;stroke:none"
         d="m 10.38097,750.21521 c 4.021872,-8.91237 10.964066,-20.74188 20.741882,-20.74188 15.644506,0 21.226564,23.10245 33.187011,33.18701 17.69676,14.92118 37.160637,27.6814 56.694477,40.10098 22.82027,14.50905 45.54046,29.74818 70.5224,40.10097 30.47476,12.62908 62.69564,22.05379 95.41265,26.27304 37.48868,4.83461 76.34224,6.12152 113.38896,-1.38279 23.90893,-4.84308 46.05297,-16.51871 67.7568,-27.65584 20.82195,-10.68461 41.16036,-22.74652 59.46008,-37.33538 20.38814,-16.25381 39.07916,-34.90659 55.31167,-55.31169 10.82843,-13.6119 20.33398,-28.47186 27.65584,-44.24936 10.79961,-23.27145 1.94667,-59.38387 23.50748,-73.28797 10.13839,-6.53803 29.56175,-6.08346 35.95258,4.14837 4.40203,7.04775 -7.45162,15.24102 -8.29675,23.50747 -1.04089,10.18126 2.36204,20.34421 4.14838,30.42143 2.63536,14.86679 6.35079,29.5223 9.67955,44.24935 3.13051,13.84997 9.99032,27.2878 9.67954,41.48377 -0.52381,23.92716 -8.1562,47.99061 -19.35909,69.1396 -12.70786,23.99008 -31.94117,44.54937 -52.54611,62.22563 -29.51949,25.32378 -64.42208,44.17109 -99.56102,60.84289 -25.15566,11.9352 -51.6112,21.7411 -78.81915,27.6558 -24.87476,5.4075 -50.60269,7.41079 -76.05357,6.91399 -32.06751,-0.62609 -64.15268,-5.26659 -95.41266,-12.44519 -44.03904,-10.1131 -88.83173,-21.4136 -128.59966,-42.86652 C 107.96917,930.69757 83.061385,911.43421 62.927071,888.49442 44.519816,867.52234 30.702538,842.38462 20.060515,816.58924 14.262201,802.53459 10.384047,787.48031 8.9981781,772.33989 8.3246221,764.98137 7.3415661,756.95045 10.38097,750.21521 z"
         id="path3050"
         inkscape:connector-curvature="0"
         sodipodi:nodetypes="cccccccccccccccccccccccccccc" />
      <path
         style="fill:url(#radialGradient3257);fill-opacity:1;stroke:none"
         d="m 10.38097,750.21521 c 4.021872,-8.91237 10.964066,-20.74188 20.741882,-20.74188 15.644506,0 21.226564,23.10245 33.187011,33.18701 17.69676,14.92118 37.160637,27.6814 56.694477,40.10098 22.82027,14.50905 45.54046,29.74818 70.5224,40.10097 30.47476,12.62908 62.69564,22.05379 95.41265,26.27304 37.48868,4.83461 76.34224,6.12152 113.38896,-1.38279 23.90893,-4.84308 46.05297,-16.51871 67.7568,-27.65584 20.82195,-10.68461 41.16036,-22.74652 59.46008,-37.33538 20.38814,-16.25381 39.07916,-34.90659 55.31167,-55.31169 10.82843,-13.6119 20.33398,-28.47186 27.65584,-44.24936 10.79961,-23.27145 1.94667,-59.38387 23.50748,-73.28797 10.13839,-6.53803 29.56175,-6.08346 35.95258,4.14837 4.40203,7.04775 -7.45162,15.24102 -8.29675,23.50747 -1.04089,10.18126 2.36204,20.34421 4.14838,30.42143 2.63536,14.86679 6.35079,29.5223 9.67955,44.24935 3.13051,13.84997 9.99032,27.2878 9.67954,41.48377 -0.52381,23.92716 -8.1562,47.99061 -19.35909,69.1396 -12.70786,23.99008 -31.94117,44.54937 -52.54611,62.22563 -29.51949,25.32378 -64.42208,44.17109 -99.56102,60.84289 -25.15566,11.9352 -51.6112,21.7411 -78.81915,27.6558 -24.87476,5.4075 -50.60269,7.41079 -76.05357,6.91399 -32.06751,-0.62609 -64.15268,-5.26659 -95.41266,-12.44519 -44.03904,-10.1131 -88.83173,-21.4136 -128.59966,-42.86652 C 107.96917,930.69757 83.061385,911.43421 62.927071,888.49442 44.519816,867.52234 30.702538,842.38462 20.060515,816.58924 14.262201,802.53459 10.384047,787.48031 8.9981781,772.33989 8.3246221,764.98137 7.3415661,756.95045 10.38097,750.21521 z"
         id="path3060"
         inkscape:connector-curvature="0"
         sodipodi:nodetypes="cccccccccccccccccccccccccccc" />
      <path
         transform="matrix(0.96795447,0,0,0.96795447,8.9981781,352.45019)"
         sodipodi:nodetypes="cc"
         inkscape:connector-curvature="0"
         inkscape:original-d="m 617.15534,402.21464 c 43.10044,-51.4195 54.94327,-30.07093 72.2851,40.14552"
         inkscape:path-effect="#path-effect3846"
         id="path3844"
         d="m 617.15534,402.21464 c -0.57038,-0.4781 0.21851,-2.55421 2.24285,-5.8336 2.02435,-3.27939 5.2724,-7.78176 9.96785,-12.81498 0,0 0,-10e-6 0,-10e-6 1.61602,-1.74359 3.43181,-3.56934 5.51209,-5.37817 2.08027,-1.80882 4.42539,-3.60081 7.1163,-5.22903 3.26942,-2.0418 7.40246,-3.76421 12.36063,-3.98694 4.12174,-0.045 8.18361,1.25215 11.53414,3.69108 2.42562,1.80263 4.46844,3.93191 6.17778,6.19879 0.94354,1.2513 1.77273,2.52534 2.50804,3.7866 3.00376,5.01518 5.09028,10.10927 6.76897,14.88738 2.22488,6.30081 3.87673,12.25718 5.14389,17.62302 1.26717,5.36584 2.15092,10.14241 2.7492,14.13026 0.59829,3.98786 0.90905,7.18882 0.94657,9.42592 0.0375,2.2371 -0.20152,3.51141 -0.74321,3.6452 -0.54169,0.13379 -1.34528,-0.88434 -2.35617,-2.87697 -1.01088,-1.99262 -2.22593,-4.96131 -3.62112,-8.70552 -1.39518,-3.74422 -2.96783,-8.2641 -4.77129,-13.32243 -1.80346,-5.05833 -3.83791,-10.65344 -6.25423,-16.52302 -1.83489,-4.43537 -3.8135,-8.94609 -6.38778,-13.0943 -0.66069,-1.03203 -1.3286,-2.03613 -2.02093,-2.9765 -1.25425,-1.70361 -2.55741,-3.14922 -4.00338,-4.17657 -1.71588,-1.26442 -3.74235,-2.04813 -5.59087,-2.04402 -2.51234,-0.16122 -5.29873,0.94546 -8.04072,2.2415 -2.25253,1.11663 -4.34794,2.45717 -6.32428,3.86097 -1.97635,1.40379 -3.83337,2.87065 -5.58652,4.28395 0,0 -10e-6,0 -10e-6,0 -5.02799,4.07759 -9.00805,7.70804 -11.94395,10.10064 -2.93589,2.3926 -4.81347,3.56485 -5.38385,3.08675 z"
         style="fill:#9a7c17;fill-opacity:1;fill-rule:evenodd;stroke:none;filter:url(#filter3852)" />
      <path
         transform="matrix(0.96795447,0,0,0.96795447,8.9981781,352.45019)"
         sodipodi:nodetypes="ccccccccc"
         inkscape:connector-curvature="0"
         id="path3902"
         d="m 624.03013,262.03976 c -0.18504,6.91241 6.51957,12.31375 12.57336,14.20125 9.85718,-0.83874 5.53684,9.04588 7.89649,13.97297 5.74172,-3.38757 13.38536,-0.51943 20.03625,-1.47864 6.37062,-2.19812 13.60051,3.6146 18.73312,0.20217 l -11.22397,-17.6571 -13.34488,-6.90346 -19.34992,-3.96328 z"
         style="fill:#000000;stroke:#000000;stroke-width:1px;stroke-linecap:butt;stroke-linejoin:miter;stroke-opacity:1;filter:url(#filter4048)" />
      <path
         transform="matrix(0.96795447,0,0,0.96795447,8.9981781,352.45019)"
         inkscape:connector-curvature="0"
         id="path3920"
         d="m 104.04571,530.11332 c 1.34687,0.67343 4.71405,0.67343 4.04061,2.0203 -0.67343,1.34687 -4.8759,-3.27324 -4.04061,-2.0203 10.83106,16.24658 2.85344,3.64488 7.07107,5.05076 0.71429,0.23809 1.37468,0.62278 2.02031,1.01015 1.04104,0.62463 2.0203,1.34687 3.03045,2.02031 1.01016,0.67343 1.94458,1.47736 3.03046,2.0203 1.94564,0.97282 5.12914,1.373 7.07107,2.02031 1.68359,0.67343 3.36717,1.34687 5.05076,2.0203 0.33672,0 0.69072,-0.10648 1.01015,0 0.71429,0.2381 1.48791,0.47776 2.02031,1.01015 2.09004,2.09005 -3.19386,-0.0817 1.01015,2.02031 0.30117,0.15058 0.69072,-0.10648 1.01015,0 0.71429,0.2381 1.30602,0.77206 2.02031,1.01015 0.31944,0.10648 0.68349,-0.0817 1.01015,0 1.033,0.25825 1.99746,0.7519 3.03046,1.01016 3.44367,0.86091 -3.63758,-2.82895 4.04061,1.01015 0.0931,0.0466 1.88378,1.92928 2.0203,2.0203 4.88521,2.44261 -0.0546,-0.29352 3.03046,2.02031 1.29083,2.45003 4.18151,1.77752 6.06092,3.03046 1.18864,0.79242 2.0203,2.0203 3.03045,3.03045 0.33672,0.33672 0.61394,0.74601 1.01016,1.01016 0.62647,0.41764 1.36658,0.63659 2.0203,1.01015 1.7047,0.97411 3.41713,1.94137 5.05077,3.03046 3.03045,2.0203 -2.02031,0 3.03045,3.03045 0.91306,0.54784 2.07808,0.53397 3.03046,1.01016 0.42592,0.21295 0.58424,0.79719 1.01015,1.01015 4.8828,2.4414 1.19821,0.23964 5.05077,1.01015 1.04411,0.20882 2.0203,0.67344 3.03045,1.01015 1.01016,0.33672 2.11741,0.46232 3.03046,1.01016 3.97981,2.38788 -0.2322,2.14996 5.05076,3.03045 0.99641,0.16607 2.02031,0 3.03046,0 0.67344,0 1.35995,-0.13207 2.02031,0 1.04411,0.20883 1.99745,0.75191 3.03045,1.01016 0.32667,0.0817 0.70899,-0.15059 1.01016,0 0.42591,0.21296 0.58423,0.79719 1.01015,1.01015 0.95238,0.47619 2.07808,0.53396 3.03046,1.01015 0.85183,0.42592 1.16847,1.59439 2.0203,2.02031 0.95238,0.47619 2.17862,0.37127 3.03046,1.01015 3.72979,2.79734 -2.04621,1.57998 3.03046,3.03046 1.65087,0.47167 3.39433,0.5584 5.05076,1.01015 2.05455,0.56033 3.97268,1.60266 6.06092,2.0203 1.32071,0.26415 2.69374,0 4.04061,0 2.0203,0 4.04061,0 6.06091,0 1.34687,0 2.70198,-0.14873 4.04061,0 1.70643,0.18961 3.34434,0.82055 5.05076,1.01016 1.33864,0.14873 2.69374,0 4.04061,0 1.01016,0 2.03993,-0.19811 3.03046,0 0.7383,0.14766 1.32123,0.73052 2.02031,1.01015 4.16098,1.66439 2.1687,0.1113 6.06091,3.03046 0.38095,0.28571 0.5584,0.85956 1.01015,1.01015 0.63888,0.21296 1.39504,-0.25011 2.02031,0 4.21877,1.68751 1.8613,1.39598 4.04061,3.03046 0.97124,0.72843 1.94458,1.47736 3.03046,2.0203 0.30117,0.15059 0.67997,-0.066 1.01015,0 1.36136,0.27227 2.67118,0.78192 4.04061,1.01015 0.66427,0.11072 1.35995,-0.13207 2.0203,0 1.04412,0.20883 1.97218,0.89257 3.03046,1.01016 2.00795,0.2231 4.05064,-0.20103 6.06092,0 1.38143,0.13814 2.66078,0.85684 4.04061,1.01015 1.67329,0.18592 3.36717,0 5.05076,0 4.37733,0 8.75466,0 13.13198,0 2.35703,0 4.71405,0 7.07107,0 2.02031,0 4.04891,-0.18291 6.06092,0 1.70987,0.15544 3.34088,0.85471 5.05076,1.01015 2.01201,0.18291 4.04061,0 6.06091,0 5.38749,0 10.77497,0 16.16245,0 5.38748,0 10.77496,0 16.16244,0 2.0203,0 4.04061,0 6.06091,0 2.02031,0 4.04891,-0.18291 6.06092,0 1.70987,0.15545 3.34433,0.82055 5.05076,1.01016 1.33863,0.14873 2.70414,-0.16706 4.04061,0 1.3776,0.1722 2.66078,0.85683 4.04061,1.01015 1.67329,0.18592 3.36718,0 5.05076,0 2.02031,0 4.04061,0 6.06092,0 5.7242,0 11.44839,0 17.17259,0 3.70389,0 7.40779,0 11.11168,0 0.67343,0 1.34687,0 2.0203,0 1.01016,0 2.12695,0.45175 3.03046,0 0.67344,-0.33672 0.47776,-1.48791 1.01015,-2.02031 0.2381,-0.23809 0.67344,0 1.01016,0 0.67039,0 1.34991,0 2.0203,0 5.05076,0 10.10153,0 15.15229,0 10.10153,0 20.20305,0 30.30458,0 3.36717,0 6.73435,0 10.10152,0 3.03046,0 6.0875,0.40052 9.09138,0 2.1109,-0.28145 4.04061,-1.34687 6.06091,-2.0203 2.02031,-0.67344 4.10351,-1.18142 6.06092,-2.02031 0.43768,-0.18758 0.58423,-0.79719 1.01015,-1.01015 0.30117,-0.15058 0.77206,0.23809 1.01015,0 0.5324,-0.5324 0.47776,-1.48791 1.01015,-2.02031 0.5324,-0.53239 1.30602,-0.77205 2.02031,-1.01015 0.31944,-0.10648 0.85957,0.30117 1.01015,0 0.30117,-0.60234 -0.21296,-1.38143 0,-2.0203 0.15059,-0.45176 0.58424,-0.7972 1.01015,-1.01016 0.30117,-0.15058 0.90368,0.31944 1.01016,0 0.31943,-0.95831 -0.245,-2.05046 0,-3.03045 0.11549,-0.46198 0.79719,-0.58424 1.01015,-1.01016 0.15058,-0.30117 0,-0.67343 0,-1.01015 0.33672,-0.33672 0.79719,-0.58423 1.01015,-1.01015 0.15059,-0.30117 0,-0.67344 0,-1.01015 0,-0.67344 -0.21296,-1.38143 0,-2.02031 0.15059,-0.45175 0.74601,-0.61394 1.01015,-1.01015 1.95166,-2.92748 -0.25897,-1.89082 4.04061,-4.04061 0.30117,-0.15059 0.72999,0.18678 1.01016,0 0.79243,-0.52829 1.34687,-1.34687 2.0203,-2.02031 1.01015,-0.33671 2.07808,-0.53396 3.03046,-1.01015 2.07639,-1.03819 0.15898,-2.17928 2.0203,-4.04061 0.47619,-0.47619 1.45998,0.37356 2.02031,0 2.95677,-1.97118 0.20694,-1.42404 1.01015,-3.03046 0.21296,-0.42591 0.67344,-0.67343 1.01015,-1.01015 0.67344,-0.67343 1.34687,-1.34687 2.02031,-2.0203 0.33672,-0.33672 0.79719,-0.58424 1.01015,-1.01016 0.47619,-0.95238 0.53396,-2.07807 1.01015,-3.03045 0.21296,-0.42592 0.7972,-0.58424 1.01016,-1.01016 0.15058,-0.30117 -0.30117,-0.85956 0,-1.01015 0.60234,-0.30117 1.45997,0.37356 2.0203,0 0.62647,-0.41765 0.47776,-1.48791 1.01015,-2.0203 0.2381,-0.2381 0.77206,0.23809 1.01016,0 0.61879,-0.6188 0.85996,-2.64368 2.0203,-3.03046 0.63888,-0.21296 1.54412,0.47619 2.02031,0 2.55939,-2.5594 0.55391,-2.21564 1.01015,-4.04061 0.25825,-1.033 0.53396,-2.07808 1.01015,-3.03046 0.21296,-0.42592 0.61394,-0.74601 1.01016,-1.01015 1.25294,-0.8353 2.78767,-1.18501 4.04061,-2.02031 0.39621,-0.26414 0.58423,-0.79719 1.01015,-1.01015 0.30117,-0.15058 0.82337,0.28017 1.01015,0 0.59064,-0.88596 0.25723,-2.27753 1.01015,-3.03046 0.75293,-0.75292 2.17863,-0.37127 3.03046,-1.01015 0.60234,-0.45175 0.59251,-1.39384 1.01015,-2.02031 0.26415,-0.39621 0.67344,-0.67343 1.01016,-1.01015 2.76465,-2.76465 -1.67051,1.53844 4.04061,-3.03046 0.74368,-0.59494 1.20364,-1.5303 2.0203,-2.0203 0.91305,-0.54783 2.19899,-0.34498 3.03046,-1.01015 0.94801,-0.75842 1.16184,-2.172 2.0203,-3.03046 0.5324,-0.5324 1.48791,-0.47776 2.02031,-1.01015 0.85846,-0.85847 1.29187,-2.05922 2.0203,-3.03046 0.28572,-0.38095 0.85957,-0.5584 1.01016,-1.01015 0.40184,-1.20553 -0.40185,-2.83509 0,-4.04061 0.15058,-0.45176 0.67343,-0.67344 1.01015,-1.01016 0.67343,-0.67343 1.13604,-1.6666 2.0203,-2.0203 0.93791,-0.37516 2.12695,0.45175 3.03046,0 0.67344,-0.33672 0.47776,-1.48791 1.01015,-2.02031 0.88265,-0.88264 4.26179,-1.62581 5.05077,-2.0203 0.42591,-0.21296 0.6292,-0.72444 1.01015,-1.01015 0.97124,-0.72844 2.17199,-1.16184 3.03046,-2.02031 0.23809,-0.23809 -0.15059,-0.70898 0,-1.01015 0.21296,-0.42592 0.79719,-0.58424 1.01015,-1.01015 0.15058,-0.30117 -0.15059,-0.70899 0,-1.01016 0.21296,-0.42591 0.79719,-0.58423 1.01015,-1.01015 0.15059,-0.30117 0,-0.67343 0,-1.01015 0,-1.01015 -0.245,-2.05047 0,-3.03046 0.1155,-0.46197 0.7972,-0.58423 1.01015,-1.01015 0.15059,-0.30117 0,-0.67344 0,-1.01015 0,-0.67344 0,-1.34687 0,-2.02031 0,-0.67343 -0.21295,-1.38143 0,-2.0203 0.0752,-0.22559 1.87532,-1.73032 2.02031,-2.02031 0.15058,-0.30117 -0.15058,-0.70898 0,-1.01015 1.72444,-3.44888 1.01015,3.12412 1.01015,-4.04061 0,-0.33672 0.31944,-0.90368 0,-1.01016 -0.95831,-0.31943 -2.0203,0 -3.03046,0 -0.67343,0 -1.34687,0 -2.0203,0 -1.99802,0 -4.0629,0 -6.06092,0 -0.67343,0 -1.35994,-0.13207 -2.0203,0 -1.04412,0.20883 -2.02031,0.67344 -3.03046,1.01016 -1.01015,0.33671 -2.1174,0.46232 -3.03046,1.01015 -0.81666,0.49 -1.27662,1.42536 -2.0203,2.0203 -0.94802,0.75842 -2.02031,1.34687 -3.03046,2.02031 -1.01015,0.67343 -1.94458,1.47736 -3.03046,2.02031 -4.88279,2.44139 -1.1982,0.23964 -5.05076,1.01015 -1.04412,0.20882 -2.0203,0.67343 -3.03046,1.01015 -1.01015,0.33672 -2.27753,0.25723 -3.03045,1.01015 -0.75293,0.75293 -0.41952,2.1445 -1.01016,3.03046 -0.18677,0.28017 -0.70898,-0.15058 -1.01015,0 -1.08588,0.54294 -2.05922,1.29187 -3.03046,2.02031 -1.42785,1.07088 -1.86974,2.64775 -3.03045,4.04061 -0.91455,1.09745 -1.933,2.1159 -3.03046,3.03045 -3.42217,2.85181 -3.10974,1.11587 -6.06092,5.05077 -1.17803,1.5707 -1.53974,3.77301 -3.03046,5.05076 -1.05409,0.90351 -2.88545,0.24005 -4.04061,1.01015 -1.01015,0.67344 -1.16184,2.17199 -2.0203,3.03046 -0.5324,0.5324 -1.43237,0.5398 -2.02031,1.01015 -1.11552,0.89242 -2.0203,2.02031 -3.03045,3.03046 -1.01016,1.01015 -2.02031,2.0203 -3.03046,3.03046 -0.33672,0.33671 -0.54818,0.89466 -1.01015,1.01015 -0.98,0.245 -2.07215,-0.31944 -3.03046,0 -1.91144,0.63715 -3.67145,2.6613 -5.05076,4.04061 -1.01016,1.01015 -1.84182,2.23803 -3.03046,3.03046 -0.1998,0.1332 -5.81321,1.87168 -6.06092,2.0203 -3.7337,2.24022 -0.0429,2.31506 -5.05076,3.03046 -1.33333,0.19048 -2.70198,-0.14874 -4.04061,0 -0.64721,0.0719 -8.04665,1.57257 -9.09137,2.0203 -1.11589,0.47824 -1.94458,1.47737 -3.03046,2.02031 -0.95238,0.47619 -2.05176,0.59071 -3.03046,1.01015 -1.38409,0.59318 -2.65652,1.42713 -4.04061,2.02031 -3.40487,1.45923 -3.22654,0.73879 -7.07107,2.0203 -1.68358,0.67344 -3.36717,1.34687 -5.05076,2.02031 -0.67343,1.01015 -0.97926,2.40583 -2.0203,3.03046 -0.8662,0.51971 -2.05918,-0.27751 -3.03046,0 -3.00797,0.0861 -4.49568,3.18214 -7.07107,4.04061 -0.95831,0.31943 -2.03992,-0.19811 -3.03046,0 -0.7383,0.14766 -1.29635,0.8033 -2.0203,1.01015 -7.29178,2.08336 -2.84466,-0.43994 -9.09137,3.03046 -4.22073,-0.0116 -5.1577,4.39032 -8.08123,6.06091 -1.2054,0.6888 -2.8352,0.32135 -4.04061,1.01015 -1.24034,0.70877 -1.71739,2.46772 -3.03045,3.03046 -1.23797,0.53056 -2.69374,0 -4.04061,0 -1.68359,0 -3.36718,0 -5.05077,0 -1.01015,0 -2.0203,0 -3.03045,0 -0.67344,0 -1.35995,-0.13207 -2.02031,0 -1.04412,0.20882 -1.97636,0.85957 -3.03046,1.01015 -1.33333,0.19048 -2.69374,0 -4.04061,0 -1.01015,0 -2.0203,0 -3.03045,0 -1.34687,0 -2.70198,-0.14873 -4.04061,0 -1.70643,0.18961 -3.34434,0.82055 -5.05077,1.01016 -1.33863,0.14873 -2.70727,-0.19048 -4.04061,0 -1.05409,0.15058 -2.0203,0.67343 -3.03045,1.01015 -1.34687,0.33672 -2.66301,0.83795 -4.04061,1.01015 -1.33647,0.16706 -2.69375,0 -4.04062,0 -1.68358,0 -3.36717,0 -5.05076,0 -3.70389,0 -7.40778,0 -11.11168,0 -2.69374,0 -5.38748,0 -8.08122,0 -2.0203,0 -4.07319,0.3614 -6.06091,0 -1.78403,-0.32437 -3.26673,-1.69593 -5.05076,-2.0203 -1.98772,-0.36141 -4.04061,0 -6.06092,0 -1.68359,0 -3.36717,0 -5.05076,0 -7.40779,0 -14.81557,0 -22.22336,0 -7.40778,0 -14.81557,0 -22.22335,0 -2.69374,0 -5.38748,0 -8.08122,0 -1.34687,0 -2.7199,0.26414 -4.04061,0 -3.16464,-0.63293 -6.74169,-2.69448 -10.10153,-3.03046 -2.01028,-0.20103 -4.04061,0 -6.06092,0 -0.0574,0 -10.44664,0 -11.11167,0 -2.02031,0 -4.04061,0 -6.06092,0 -1.34687,0 -2.73395,0.32666 -4.04061,0 -1.46088,-0.36522 -2.5927,-1.60662 -4.04061,-2.02031 -0.97128,-0.27751 -2.0203,0 -3.03046,0 -1.34687,0 -2.74556,0.37002 -4.04061,0 -1.16734,-0.33352 -1.84531,-1.75694 -3.03045,-2.0203 -1.9722,-0.43827 -4.08872,0.43826 -6.06092,0 -1.18514,-0.26337 -1.91457,-1.54207 -3.03046,-2.02031 -1.27607,-0.54688 -2.71084,-0.61122 -4.04061,-1.01015 -2.03977,-0.61193 -3.99491,-1.5038 -6.06091,-2.0203 -20.1328,-5.0332 7.90197,2.63053 -12.12183,-1.01016 -9.35835,-1.70151 -0.98049,-2.21937 -9.09138,-3.03045 -17.37353,0 3.05564,0.9035 -10.10152,-2.02031 -1.6435,-0.36522 -3.43195,0.46252 -5.05076,0 -0.91574,-0.26164 -1.13605,-1.6666 -2.02031,-2.0203 -0.67636,-0.27055 -5.50747,0.27672 -6.06091,0 -0.67344,-0.33672 -0.47776,-1.48791 -1.01016,-2.02031 -0.23809,-0.23809 -0.85957,0.30117 -1.01015,0 -0.30117,-0.60234 0.37355,-1.45997 0,-2.0203 -0.41765,-0.62647 -1.48791,-0.47776 -2.02031,-1.01016 -0.53239,-0.53239 -0.5925,-1.39383 -1.01015,-2.0203 -0.26414,-0.39622 -0.74601,-0.61394 -1.01015,-1.01015 -2.44622,-3.66934 0.29581,-0.71435 -2.02031,-3.03046 -0.33671,-0.33672 -0.54818,-0.89466 -1.01015,-1.01016 -0.97999,-0.24499 -2.22233,0.6061 -3.03046,0 -0.85183,-0.63887 -0.34498,-2.19899 -1.01015,-3.03045 -1.08762,-1.35953 -9.05595,-5.03788 -9.09137,-5.05077 -1.61356,-0.58674 -3.42194,-0.46721 -5.05076,-1.01015 -1.42858,-0.47619 -2.65652,-1.42712 -4.04061,-2.0203 -0.9787,-0.41945 -2.07808,-0.53397 -3.03046,-1.01016 -0.42592,-0.21295 -0.58424,-0.79719 -1.01015,-1.01015 -0.30117,-0.15058 -0.77206,0.2381 -1.01016,0 -0.53239,-0.5324 -0.47775,-1.48791 -1.01015,-2.0203 -0.23809,-0.2381 -0.67343,0 -1.01015,0 -2.69374,0 -5.38748,0 -8.08122,0 -0.33672,0 -0.67344,0 -1.01015,0 -0.33672,0 -0.85957,0.30117 -1.01016,0 -0.30117,-0.60234 0.47619,-1.54412 0,-2.02031 -0.47619,-0.47619 -1.34687,0 -2.0203,0 -0.67344,0 -1.34687,0 -2.02031,0 -0.33671,0 -0.77205,0.2381 -1.01015,0 -0.5324,-0.5324 -0.47776,-1.48791 -1.01015,-2.0203 -0.2381,-0.2381 -0.67344,0 -1.01015,0 -0.33672,0 -0.67344,0 -1.01016,0 -0.67343,0 -1.34687,0 -2.0203,0 -0.33672,0 -0.72999,-0.18678 -1.01016,0 -1.79393,1.19595 -3.36717,2.69374 -5.05076,4.04061 z"
         style="fill:#c0941d;fill-opacity:1;stroke:#000000;stroke-width:1px;stroke-linecap:butt;stroke-linejoin:miter;stroke-opacity:1;filter:url(#filter3922)" />
      <path
         transform="matrix(0.96795447,0,0,0.96795447,8.9981781,352.45019)"
         inkscape:connector-curvature="0"
         id="path3926"
         d="m 20.203051,433.13867 c 1.518838,2.65998 5.068636,1.42851 7.071068,3.03046 0.948015,0.75841 0.966212,2.42812 2.020305,3.03046 1.490712,0.85183 3.443152,0.4073 5.050763,1.01015 2.647936,-0.88548 2.477438,2.40519 4.04061,3.03046 1.289024,0.51561 2.798857,0.38927 4.04061,1.01015 0.851835,0.42592 1.34687,1.34687 2.020305,2.02031 0.673435,0.67343 1.227876,1.49201 2.020305,2.0203 1.25294,0.83529 2.724264,1.289 4.04061,2.02031 0.993285,0.55182 5.098218,3.25147 7.071068,4.04061 0.988637,0.39545 1.997456,0.7519 3.030458,1.01015 0.326664,0.0817 0.673435,0 1.010152,0 0.336718,0 0.772058,-0.2381 1.010153,0 0.23517,0.23517 -0.210694,1.59892 0,2.0203 0.212959,0.42592 0.797194,0.58424 1.010152,1.01016 0.150585,0.30117 -0.150584,0.70898 0,1.01015 0.212959,0.42592 0.797194,0.58423 1.010153,1.01015 0.150585,0.30117 -0.150585,0.70898 0,1.01015 0.212959,0.42592 0.724438,0.6292 1.010152,1.01016 0.728432,0.97124 1.161841,2.17199 2.020306,3.03045 0.238095,0.2381 0.708983,-0.15058 1.010152,0 7.089282,4.72619 -0.124209,0.72657 5.050763,2.02031 0.730443,0.18261 1.34687,0.67343 2.020305,1.01015 0.673435,0.33672 1.487908,0.47776 2.020305,1.01015 0.238095,0.2381 -0.238095,0.77206 0,1.01016 0.238095,0.23809 0.708983,-0.15059 1.010153,0 0.425917,0.21296 0.584234,0.79719 1.010152,1.01015 0.301169,0.15058 0.708983,-0.15059 1.010153,0 0.425917,0.21296 0.584234,0.79719 1.010152,1.01015 0.107849,0.0539 1.815535,-0.0512 2.020305,0 1.033002,0.25825 1.997456,0.7519 3.030458,1.01015 0.326664,0.0817 0.673435,0 1.010152,0 0.336718,0 0.673435,0 1.010153,0 1.34687,0 2.69374,0 4.04061,0 0.336718,0 0.859568,0.30117 1.010153,0 0.301169,-0.60233 0,-1.34687 0,-2.0203 0,-0.33672 0,-0.67344 0,-1.01015 0,-2.69374 0,-5.38748 0,-8.08122 0,-0.67435 0,-1.34597 0,-2.02031 0,-0.33672 0.301169,-0.85957 0,-1.01015 -5.387481,0 0.673435,0.67343 -2.020305,-2.02031 -0.476191,-0.47619 -1.544115,0.47619 -2.020305,0 -0.476191,-0.47619 0,-1.34687 0,-2.0203 0,-0.33672 0.238095,-0.77206 0,-1.01015 -0.532398,-0.5324 -1.393836,-0.59251 -2.020306,-1.01016 -0.396214,-0.26414 -0.584234,-0.79719 -1.010152,-1.01015 -0.421388,-0.21069 -1.785135,0.23517 -2.020305,0 -0.532397,-0.5324 -0.772057,-1.30602 -1.010153,-2.0203 -0.106479,-0.31944 0.30117,-0.85957 0,-1.01016 -0.602338,-0.30117 -1.544114,0.47619 -2.020305,0 -0.47619,-0.47619 0,-1.34687 0,-2.0203 0,-0.33672 0.301169,-0.85957 0,-1.01015 -5.38748,0 0.673435,0.67343 -2.020305,-2.02031 -0.47619,-0.47619 -1.34687,0 -2.020305,0 -0.336718,0 -0.772057,0.2381 -1.010153,0 -0.532397,-0.5324 -0.772057,-1.30602 -1.010152,-2.0203 -0.10648,-0.31944 0.301169,-0.85957 0,-1.01016 -0.602339,-0.30117 -1.544115,0.47619 -2.020305,0 -0.476191,-0.47619 0.47619,-1.54411 0,-2.0203 -0.476191,-0.47619 -1.459973,0.37355 -2.020305,0 -0.62647,-0.41765 -0.477756,-1.48791 -1.010153,-2.02031 -0.238095,-0.23809 -0.673435,0 -1.010152,0 -0.336718,-0.67343 -0.477756,-1.48791 -1.010153,-2.0203 -0.238095,-0.2381 -0.859568,0.30117 -1.010152,0 -0.30117,-0.60234 0.47619,-1.54412 0,-2.02031 -0.476191,-0.47619 -1.544115,0.47619 -2.020306,0 -0.47619,-0.47619 0.476191,-1.54411 0,-2.0203 -0.47619,-0.47619 -1.544114,0.47619 -2.020305,0 -0.47619,-0.47619 0.476191,-1.54412 0,-2.02031 -0.47619,-0.47619 -1.459973,0.37356 -2.020305,0 -0.62647,-0.41764 -0.592506,-1.39383 -1.010152,-2.0203 -0.264143,-0.39622 -0.584235,-0.7972 -1.010153,-1.01016 -0.301169,-0.15058 -0.859568,0.30117 -1.010152,0 -0.30117,-0.60233 0.47619,-1.54411 0,-2.0203 -0.476191,-0.47619 -1.459974,0.37355 -2.020305,0 -0.62647,-0.41765 -0.477756,-1.48791 -1.010153,-2.02031 -0.238095,-0.23809 -0.859568,0.30117 -1.010153,0 -0.301169,-0.60233 0.373555,-1.45997 0,-2.0203 -0.0627,-2.84433 -2.277534,-0.25723 -3.030457,-1.01015 -0.532397,-0.5324 -0.477756,-1.48791 -1.010153,-2.02031 -0.238095,-0.23809 -0.673435,0 -1.010152,0 -0.336718,-0.67343 -0.477756,-1.48791 -1.010153,-2.0203 -0.238095,-0.2381 -1.010152,0.33671 -1.010152,0 0,-0.33672 1.160737,0.30117 1.010152,0 -0.425918,-0.85184 -1.168469,-1.59439 -2.020305,-2.02031 -0.602339,-0.30117 -1.544115,0.47619 -2.020305,0 -0.47619,-0.47619 0,-1.34687 0,-2.0203 0,-0.33672 0.301169,-0.85957 0,-1.01016 -0.602339,-0.30117 -1.459973,0.37356 -2.020305,0 -0.62647,-0.41764 -0.772057,-1.30602 -1.010153,-2.0203 -0.106479,-0.31944 0.30117,-0.85957 0,-1.01015 -0.602338,-0.30117 -1.544114,0.47619 -2.020305,0 -0.47619,-0.47619 0,-1.34687 0,-2.02031 0,-0.33672 0.238096,-0.77206 0,-1.01015 -0.532397,-0.5324 -1.306019,-0.77206 -2.020305,-1.01015 -0.319438,-0.10648 -0.772057,0.23809 -1.010152,0 -0.532398,-0.5324 -0.477756,-1.48791 -1.010153,-2.02031 -0.238095,-0.23809 -0.772057,0.2381 -1.010152,0 -0.532398,-0.5324 -0.772058,-1.30602 -1.010153,-2.0203 -0.106479,-0.31944 0.301169,-0.85957 0,-1.01016 -0.602339,-0.30117 -1.34687,0 -2.020305,0 -0.686849,0 -1.333456,0 -2.020305,0 -0.336718,0 -0.772057,-0.23809 -1.010153,0 -0.238095,0.2381 0.30117,0.85957 0,1.01016 -0.602338,0.30117 -1.34687,0 -2.020305,0 -0.673435,0 -1.34687,0 -2.020305,0 -0.336717,0 -0.708983,-0.15059 -1.010152,0 -0.425918,0.21295 -0.584235,0.79719 -1.010153,1.01015 -0.150388,0.0752 -1.802816,-0.0725 -2.020305,0 -0.714286,0.23809 -1.306019,0.77206 -2.020305,1.01015 -0.319438,0.10648 -0.673435,0 -1.010153,0 -0.336717,0 -0.772057,-0.23809 -1.010152,0 -0.238096,0.2381 0,0.67344 0,1.01015 -0.673435,0 -1.417967,-0.30117 -2.020305,0 -0.30117,0.15059 0.301169,0.85957 0,1.01016 -4.5985024,0 -0.05777,-0.47619 -3.030458,1.01015 -0.301169,0.15058 -0.772057,-0.2381 -1.010153,0 -0.2380948,0.23809 0,0.67343 0,1.01015 0,0.33672 0,0.67344 0,1.01015 0,0.33672 0.30117,0.85957 0,1.01016 -0.6023381,0.30117 -1.417966,-0.30117 -2.0203046,0 -0.6023386,0.30117 0.6023386,1.71913 0,2.0203 -0.6023386,0.30117 -1.4179665,-0.30117 -2.0203051,0 -0.3011693,0.15059 0,0.67344 0,1.01015 0,0.67344 0,1.34687 0,2.02031 0,4.04061 0,8.08122 0,12.12183 0,0.67343 0,1.34687 0,2.0203 0,0.33672 0.2380952,0.77206 0,1.01016 -0.5323972,0.53239 -1.487908,0.47775 -2.0203051,1.01015 -0.2380953,0.23809 0,0.67343 0,1.01015 0,0.33672 0,0.67344 0,1.01015 0,3.36718 0,6.73435 0,10.10153 0,0.33672 0,0.67344 0,1.01015 0,0.67344 0.4761905,1.54412 0,2.02031 -0.4761905,0.47619 -1.4179665,-0.30117 -2.0203051,0 -0.3011693,0.15058 0,0.67343 0,1.01015 0,1.01015 0,2.02031 0,3.03046 0,2.0203 0,4.04061 0,6.06091 0,0.33672 -0.2380952,0.77206 0,1.01016 0.2380952,0.23809 0.7720573,-0.2381 1.0101525,0 0.2380953,0.23809 -0.2380952,0.77205 0,1.01015 0.2380953,0.23809 0.7720573,-0.2381 1.0101526,0 0.2380952,0.23809 -0.1505847,0.70898 0,1.01015 0.2129588,0.42592 0.673435,0.67344 1.0101525,1.01015 0.7617188,0.76172 1.2585864,1.25859 2.0203051,2.02031 0.3367175,0.33672 0.7971937,0.58423 1.0101526,1.01015 0.2106938,0.42139 -0.23517,1.78514 0,2.02031 0.2380952,0.23809 0.7720573,-0.2381 1.0101525,0 0.2380952,0.23809 -0.1505846,0.70898 0,1.01015 0.2129589,0.42592 0.7971937,0.58423 1.0101521,1.01015 0.268158,0.53632 -0.2681574,1.48399 0,2.02031 0.212959,0.42591 0.797194,0.58423 1.010153,1.01015 0.07519,0.15039 -0.0725,1.80281 0,2.0203 0.336718,0.67344 0.673435,1.34687 1.010153,2.02031 0.336717,0 0.772057,-0.2381 1.010152,0 0.238095,0.23809 -0.106479,0.69071 0,1.01015 0.238095,0.71429 0.772057,1.30602 1.010153,2.02031 0.106479,0.31943 0,0.67343 0,1.01015 0,0.33672 0,0.67343 0,1.01015 0,0.67344 -0.212959,1.38143 0,2.02031 0.07519,0.22558 1.875312,1.73032 2.020305,2.0203 0.150584,0.30117 -0.10648,0.69072 0,1.01015 0.238095,0.71429 0.673435,1.34687 1.010152,2.02031 0.336718,0.67343 0.592506,1.39383 1.010153,2.0203 0.264143,0.39622 0.673435,0.67344 1.010152,1.01016 0.336718,0.33671 0.673435,0.67343 1.010153,1.01015 0.336717,0.33672 0.673435,0.67343 1.010152,1.01015 0.336718,0.33672 0.558399,0.85957 1.010153,1.01015 0.638877,0.21296 1.417966,-0.30116 2.020305,0 0.301169,0.15059 -0.238095,0.77206 0,1.01016 0.238095,0.23809 0.772057,-0.2381 1.010153,0 0.238095,0.23809 -0.238096,0.77205 0,1.01015 0.238095,0.2381 0.673435,0 1.010152,0 0.6875,0 1.332805,0 2.020305,0 0.336718,0 0.772058,0.2381 1.010153,0 0.532397,-0.5324 0.592506,-1.39384 1.010152,-2.02031 0.264143,-0.39621 0.797194,-0.58423 1.010153,-1.01015 0.150585,-0.30117 -0.238095,-0.77205 0,-1.01015 0.238095,-0.2381 0.859568,0.30117 1.010152,0 0.30117,-0.60234 0,-1.34687 0,-2.02031 0,-1.01015 0,-2.0203 0,-3.03045 0,-3.03046 0,-6.06092 0,-9.09138 0,-1.34687 0,-2.69374 0,-4.04061 0,-0.33671 0.238096,-0.77205 0,-1.01015 -0.532397,-0.5324 -1.487908,-0.47775 -2.020305,-1.01015 -0.238095,-0.2381 0,-0.67344 0,-1.01015 0,-0.33672 0,-0.67344 0,-1.01016 0,-1.68358 0,-3.36717 0,-5.05076 0,-0.33672 0.30117,-0.85957 0,-1.01015 -5.38748,0 0.673435,0.67343 -2.020305,-2.02031 -0.47619,-0.47619 -1.544114,0.47619 -2.020305,0 -0.47619,-0.47619 0.476191,-1.54411 0,-2.0203 -0.47619,-0.47619 -1.544114,0.47619 -2.020305,0 -0.47619,-0.47619 0.373555,-1.45997 0,-2.02031 -0.417647,-0.62647 -1.487908,-0.47775 -2.020305,-1.01015 -0.47619,-0.47619 0.47619,-1.54411 0,-2.0203 -0.673435,-0.33672 -1.34687,-0.67344 -2.020305,-1.01016 0,-0.33671 0.238095,-0.77205 0,-1.01015 -0.532397,-0.5324 -1.602659,-0.38368 -2.020305,-1.01015 -0.373555,-0.56033 0,-1.34687 0,-2.02031 0,-1.34687 0,-2.69374 0,-4.04061 0,-0.33671 0.238095,-0.77205 0,-1.01015 -0.85789,-0.85789 -3.598749,-0.66279 -2.020305,-3.03046 1.056572,-1.58486 2.69374,-2.69374 4.04061,-4.04061 z"
         style="fill:#b3880c;fill-opacity:1;stroke:none;filter:url(#filter3928)" />
      <path
         transform="matrix(0.96795447,0,0,0.96795447,8.9981781,352.45019)"
         inkscape:connector-curvature="0"
         id="path3932"
         d="m 662.66007,410.91532 c -1.68359,0.33671 -3.36718,0.67343 -5.05076,1.01015 -0.33672,0.33672 -0.5584,0.85957 -1.01016,1.01015 -0.63887,0.21296 -1.36697,-0.16333 -2.0203,0 -4.87797,1.21949 0.0501,0.48005 -3.03046,2.02031 -0.30117,0.15058 -0.67343,0 -1.01015,0 -0.33672,0.33671 -0.61394,0.74601 -1.01015,1.01015 -0.62647,0.41765 -1.34687,0.67343 -2.02031,1.01015 -0.67343,0.33672 -1.34687,0.67344 -2.0203,1.01015 -0.67344,0.33672 -1.39384,0.59251 -2.02031,1.01016 -0.39621,0.26414 -0.67343,0.67343 -1.01015,1.01015 -1.01015,1.01015 -1.84182,2.23803 -3.03046,3.03046 -0.88596,0.59064 -2.1174,0.46232 -3.03046,1.01015 -2.80598,1.68359 -1.68358,3.36717 -5.05076,5.05076 -0.90351,0.45176 -2.05917,-0.27751 -3.03046,0 -1.34687,0.67344 -2.69374,1.34687 -4.04061,2.02031 -0.33671,0.67343 -0.36452,1.63293 -1.01015,2.0203 -1.19048,0.71429 -2.75159,0.49455 -4.04061,1.01015 -0.44213,0.17686 -0.58423,0.7972 -1.01015,1.01016 -0.95238,0.47619 -2.1445,0.41951 -3.03046,1.01015 -1.01015,1.01015 -2.0203,2.02031 -3.03046,3.03046 0,0.33672 0.2381,0.77205 0,1.01015 -0.53239,0.5324 -1.48791,0.47776 -2.0203,1.01015 -0.5324,0.5324 -0.47776,1.48791 -1.01016,2.02031 -0.53239,0.53239 -1.4879,0.47775 -2.0203,1.01015 -0.2381,0.2381 0.20203,0.74078 0,1.01015 -0.85714,1.14286 -2.02031,2.02031 -3.03046,3.03046 -0.33672,0.33672 -0.67343,0.67344 -1.01015,1.01015 -0.33672,0.33672 -0.79719,0.58424 -1.01015,1.01016 -0.15059,0.30116 0.30117,0.85956 0,1.01015 -0.60234,0.30117 -1.41797,-0.30117 -2.02031,0 -0.30117,0.15058 0.2381,0.77206 0,1.01015 -0.5324,0.5324 -1.48791,0.47776 -2.0203,1.01015 -0.2381,0.2381 0.23809,0.77206 0,1.01016 -0.5324,0.53239 -1.39384,0.5925 -2.02031,1.01015 -0.39621,0.26414 -0.58423,0.79719 -1.01015,1.01015 -0.30117,0.15059 -0.85957,-0.30117 -1.01015,0 -0.30117,0.60234 0.37355,1.45997 0,2.02031 -0.41765,0.62647 -1.48791,0.47775 -2.02031,1.01015 -0.23809,0.23809 0.2381,0.77206 0,1.01015 -0.5324,0.5324 -1.56855,0.40781 -2.0203,1.01015 -0.63888,0.85184 -0.53397,2.07808 -1.01016,3.03046 -0.42591,0.85184 -1.59438,1.16847 -2.0203,2.02031 -0.15059,0.30117 0,0.67343 0,1.01015 0,0.33672 0.30117,0.85957 0,1.01015 -1.92732,0.96366 -1.94658,-1.1576 -3.03046,1.01015 -0.15058,0.30117 0,0.67344 0,1.01016 0,1.01015 0,2.0203 0,3.03045 0,0.33672 0.30117,0.85957 0,1.01016 -0.60234,0.30117 -1.41797,-0.30117 -2.0203,0 -0.30117,0.15058 0,0.67343 0,1.01015 0,0.67343 0,1.34687 0,2.0203 0,0.33672 -0.2381,0.77206 0,1.01016 0.23809,0.23809 0.77205,-0.2381 1.01015,0 0.23809,0.23809 0,0.67343 0,1.01015 0,0.33672 0,0.67343 0,1.01015 0,4.71405 0,9.42809 0,14.14214 0,1.01015 0,2.0203 0,3.03046 0,0.33671 0,0.67343 0,1.01015 0,0.33672 -0.15059,0.70898 0,1.01015 0.21296,0.42592 0.89466,0.54818 1.01015,1.01015 0.245,0.97999 0,2.02031 0,3.03046 0,0.33672 -0.15058,0.70898 0,1.01015 0.21296,0.42592 0.79719,0.58424 1.01015,1.01016 0.0752,0.15038 -0.0725,1.80281 0,2.0203 0.2381,0.71429 0.77206,1.30602 1.01016,2.02031 0.10648,0.31943 -0.2381,0.77205 0,1.01015 0.23809,0.23809 0.85956,-0.30117 1.01015,0 0.30117,0.60234 0,1.34687 0,2.0203 0,0.33672 -0.15059,0.70899 0,1.01016 0.21296,0.42591 0.79719,0.58423 1.01015,1.01015 0.15059,0.30117 -0.15058,0.70898 0,1.01015 1.11675,2.2335 0.62695,0.31347 2.02031,1.01015 0.42591,0.21296 0.67343,0.67344 1.01015,1.01016 0.67343,0.67343 1.34687,1.34687 2.0203,2.0203 0.33672,0.33672 0.58424,0.79719 1.01016,1.01015 0.30117,0.15059 0.69071,-0.10648 1.01015,0 0.71428,0.2381 1.30602,0.77206 2.0203,1.01016 0.63888,0.21296 1.38143,-0.21296 2.02031,0 0.71429,0.23809 1.32123,0.73052 2.0203,1.01015 0.98864,0.39545 2.07808,0.53396 3.03046,1.01015 0.42592,0.21296 0.67344,0.67344 1.01015,1.01015 1.34687,0.67344 2.64247,1.46105 4.04061,2.02031 0.31264,0.12505 0.67344,0 1.01016,0 1.01015,0 2.0203,0 3.03046,0 0.67343,0 1.38142,-0.21296 2.0203,0 0.45175,0.15058 0.54818,0.89466 1.01015,1.01015 0.97999,0.245 2.02031,0 3.03046,0 1.01015,0 2.02031,0 3.03046,0 0.67343,0 1.45997,0.37356 2.0203,0 0.62647,-0.41765 0.47776,-1.48791 1.01016,-2.0203 2.36727,-2.36728 2.01405,0.20453 5.05076,-1.01016 0.88426,-0.3537 1.20364,-1.53031 2.0203,-2.0203 0.91306,-0.54783 2.07808,-0.53396 3.03046,-1.01015 5.10853,-3.40569 0.83316,-0.93936 6.06092,-3.03046 0.69907,-0.27963 1.282,-0.86249 2.0203,-1.01015 0.99054,-0.19811 2.02031,0 3.03046,0 1.01015,0 2.0203,0 3.03046,0 0.67343,0 1.45997,0.37355 2.0203,0 0.62647,-0.41765 0.47776,-1.48791 1.01015,-2.02031 0.2381,-0.23809 0.67344,0 1.01016,0 0.33671,0 0.67343,0 1.01015,0 0.67343,0 1.45997,0.37356 2.0203,0 0.62647,-0.41765 0.47776,-1.48791 1.01016,-2.0203 0.23809,-0.2381 0.67343,0 1.01015,0 0.67343,0 1.54411,0.47619 2.0203,0 0.4762,-0.47619 -0.21295,-1.38143 0,-2.02031 -0.37756,-2.20063 1.68359,-0.33672 2.02031,-1.01015 0.30117,-0.60234 -0.21296,-1.38143 0,-2.02031 1.051,-3.15301 0.67343,0.33672 2.0203,-1.01015 0.33672,-0.67343 0.67344,-1.34687 1.01016,-2.0203 0.33671,0 0.77205,0.23809 1.01015,0 3.94236,-3.94236 -0.23383,-0.54251 1.01015,-3.03046 0.21296,-0.42592 0.7972,-0.58424 1.01016,-1.01015 0.15058,-0.30117 -0.15059,-0.70899 0,-1.01016 3.64464,-7.28928 0.49867,1.78377 4.04061,-7.07106 0.12505,-0.31264 -0.15059,-0.70899 0,-1.01016 0.54294,-1.08588 1.39568,-1.98941 2.0203,-3.03046 0.38738,-0.64562 0.47776,-1.4879 1.01015,-2.0203 4.76845,-4.76845 1.13143,0.25587 6.06092,-3.03046 0.28016,-0.18678 -0.2381,-0.77206 0,-1.01015 0.23809,-0.2381 0.77206,0.23809 1.01015,0 1.16074,-1.16074 1.01015,-1.78648 1.01015,-3.03046 0,-0.33672 -0.15058,-0.70898 0,-1.01015 0.21296,-0.42592 0.85957,-0.5584 1.01016,-1.01015 0.21295,-0.63888 -0.16334,-1.36698 0,-2.02031 2.34484,-4.68968 0.0857,0.58144 1.01015,-4.04061 -0.23181,-2.02853 1.58052,-3.29162 2.0203,-5.05076 0.16334,-0.65333 -0.16333,-1.36698 0,-2.02031 0.18261,-0.73044 0.73053,-1.32123 1.01016,-2.0203 0.39545,-0.98864 0.53396,-2.07808 1.01015,-3.03046 0.21296,-0.42592 0.58423,-0.79719 1.01015,-1.01015 0.30117,-0.15059 0.85957,0.30117 1.01015,0 0.30117,-0.60234 0,-1.34687 0,-2.02031 0,-0.33671 0,-0.67343 0,-1.01015 0,-1.68359 0,-3.36717 0,-5.05076 0,-1.01015 -0.24499,-2.05047 0,-3.03046 0.1155,-0.46197 0.7972,-0.58423 1.01016,-1.01015 0.15058,-0.30117 0,-0.67344 0,-1.01015 0,-0.33672 0,-0.67344 0,-1.01016 0,-1.01015 0,-2.0203 0,-3.03045 0,-0.33672 0.23809,-0.77206 0,-1.01016 -0.5324,-0.53239 -1.48791,-0.47775 -2.02031,-1.01015 -0.23809,-0.2381 0.2381,-0.77206 0,-1.01015 -1.23035,-1.23035 -2.25689,-0.47318 -3.03046,-2.02031 -0.15058,-0.30117 0,-0.67343 0,-1.01015 0,-0.67344 0,-1.34687 0,-2.02031 0,-1.68358 0,-3.36717 0,-5.05076 0,-1.01015 0.45176,-2.12695 0,-3.03046 -0.33671,-0.67343 -1.4879,-0.47775 -2.0203,-1.01015 -0.2381,-0.23809 0,-0.67343 0,-1.01015 -0.67344,-0.33672 -1.48791,-0.47776 -2.02031,-1.01015 -0.47619,-0.47619 0.47619,-1.54412 0,-2.02031 -0.53239,-0.5324 -1.4879,-0.47775 -2.0203,-1.01015 -0.5324,-0.5324 -0.77206,-1.30602 -1.01015,-2.02031 -0.10648,-0.31943 0.30116,-0.85956 0,-1.01015 -0.60234,-0.30117 -1.34687,0 -2.02031,0 -0.33672,0 -0.67343,0 -1.01015,0 -0.33672,0 -0.85957,0.30117 -1.01015,0 0,-5.38748 0.67343,0.67344 -2.02031,-2.0203 -0.47619,-0.47619 0.47619,-1.54412 0,-2.02031 -0.47619,-0.47619 -1.34687,0 -2.0203,0 -1.01016,0 -2.02031,0 -3.03046,0 -0.33672,0 -0.67344,0 -1.01015,0 -0.33672,0 -0.69072,0.10648 -1.01016,0 -1.72023,-0.57341 -3.36717,-1.34687 -5.05076,-2.0203 z"
         style="opacity:0.55833333;fill:#ac7f0c;fill-opacity:1;stroke:none;filter:url(#filter3946)" />
      <path
         transform="matrix(0.96795447,0,0,0.96795447,8.9981781,352.45019)"
         clip-path="url(#clipPath3986)"
         sodipodi:nodetypes="cccccccccccccccccccccccccccc"
         inkscape:connector-curvature="0"
         id="path3950"
         d="m 1.4285714,410.93361 c 4.1550214,-9.20742 11.3270466,-21.42857 21.4285716,-21.42857 16.16244,0 21.9293,23.86729 34.285714,34.28571 18.282637,15.41517 38.390886,28.59784 58.571433,41.42858 23.57576,14.9894 47.04814,30.73304 72.85714,41.42857 31.48368,13.04718 64.77127,22.78391 98.57143,27.14285 38.72979,4.99467 78.86965,6.32418 117.14285,-1.42857 24.70047,-5.00341 47.57763,-17.06558 70,-28.57143 21.51129,-11.03833 42.52303,-23.49957 61.42858,-38.57142 21.06313,-16.79191 40.37293,-36.06222 57.14285,-57.14286 11.18693,-14.06254 21.00716,-29.41446 28.57143,-45.71429 11.15714,-24.04189 2.01111,-61.34987 24.28572,-75.71428 10.47405,-6.75448 30.54044,-6.28486 37.14285,4.28571 4.54777,7.28107 -7.69832,15.74559 -8.57143,24.28572 -1.07535,10.51832 2.44024,21.01773 4.28572,31.42857 2.72261,15.35897 6.56104,30.49968 10,45.71428 3.23415,14.3085 10.32107,28.19121 10,42.85715 -0.54115,24.71932 -8.42622,49.57942 -20,71.42857 -13.12857,24.78431 -32.99863,46.02424 -54.28572,64.28571 -30.49679,26.16215 -66.55487,45.63338 -102.85714,62.85714 -25.98847,12.33033 -53.31986,22.46092 -81.42857,28.57143 -25.69827,5.58651 -52.27796,7.65621 -78.57143,7.14286 C 328.29942,668.85823 295.15202,664.0641 262.85714,656.6479 217.36012,646.19996 171.0845,634.52526 130,612.36218 102.24756,597.3911 76.515176,577.48999 55.714286,553.79075 36.697633,532.12436 22.422914,506.15443 11.428571,479.50504 5.4382958,464.9851 1.4317498,449.43243 0,433.79075 -0.69585563,426.18862 -1.7114567,417.89183 1.4285714,410.93361 z"
         style="fill:url(#linearGradient3259);fill-opacity:1;stroke:none;filter:url(#filter3980)" />
      <path
         transform="matrix(0.96795447,0,0,0.96795447,8.9981781,352.45019)"
         inkscape:connector-curvature="0"
         id="path3992"
         d="m 296.98485,490.71737 c -2.69374,0 -5.38748,0 -8.08122,0 -0.67344,0 -1.45998,0.37355 -2.02031,0 -0.62647,-0.41765 -0.47775,-1.48791 -1.01015,-2.02031 -0.23517,-0.23517 -1.59892,0.2107 -2.0203,0 -1.08589,-0.54294 -1.94458,-1.47736 -3.03046,-2.0203 -0.30117,-0.15059 -0.67344,0 -1.01015,0 -0.33672,0 -0.67344,0 -1.01016,0 -0.33671,0 -0.77205,0.23809 -1.01015,0 -1.23035,-1.23035 -0.47318,-2.2569 -2.02031,-3.03046 -0.30853,-0.15427 -1.77971,0.16039 -2.0203,0 -0.79243,-0.52829 -1.22788,-1.49202 -2.02031,-2.02031 -0.28016,-0.18677 -0.67343,0 -1.01015,0 -1.01015,0 -2.0203,0 -3.03046,0 -0.33671,0 -0.77205,0.2381 -1.01015,0 -2.34484,-4.68968 0.66718,-0.17148 -3.03046,-2.0203 -0.85183,-0.42592 -1.13604,-1.6666 -2.0203,-2.02031 -1.50296,-0.9379 -3.48759,0.62527 -5.05076,0 -1.12722,-0.45088 -1.94458,-1.47736 -3.03046,-2.0203 -0.30117,-0.15059 -0.67344,0 -1.01015,0 -0.33672,0 -0.67344,0 -1.01016,0 -1.34687,0 -2.69374,0 -4.04061,0 -0.33671,0 -0.77205,0.23809 -1.01015,0 -0.5324,-0.5324 -0.47775,-1.48791 -1.01015,-2.02031 -0.2381,-0.23809 -0.67344,0 -1.01015,0 -0.33672,0 -0.67344,0 -1.01016,0 -1.68358,0 -3.36717,0 -5.05076,0 -0.33672,0 -0.77206,0.2381 -1.01015,0 -0.5324,-0.53239 -0.33672,-1.68358 -1.01015,-2.0203 -0.90351,-0.45175 -2.02031,0 -3.03046,0 -2.35702,0 -4.71405,0 -7.07107,0 -1.01015,0 -2.0203,0 -3.03046,0 -0.33671,0 -0.77205,0.23809 -1.01015,0 -0.5324,-0.5324 -0.38368,-1.60266 -1.01015,-2.02031 -0.56033,-0.37355 -1.34687,0 -2.02031,0 -1.01015,0 -2.0203,0 -3.03046,0 -4.37732,0 -8.75465,0 -13.13198,0 -1.68359,0 -3.39433,0.30117 -5.05076,0 -2.09524,-0.38095 -3.9603,-1.6702 -6.06092,-2.0203 -1.99281,-0.33214 -4.06809,0.33213 -6.06091,0 -16.87191,-2.81199 2.19436,-1.2739 -10.10153,-3.03046 -1,-0.14286 -2.07214,0.31944 -3.03045,0 -1.15176,-0.38392 -1.94458,-1.47736 -3.03046,-2.0203 -0.30117,-0.15059 -0.77206,0.23809 -1.01015,0 -0.5324,-0.5324 -0.47776,-1.48791 -1.01016,-2.02031 -0.53239,-0.5324 -1.48791,-0.47775 -2.0203,-1.01015 -0.85847,-0.85847 -1.47737,-1.94458 -2.02031,-3.03046 -0.15058,-0.30117 0.30117,-0.85957 0,-1.01015 -0.60234,-0.30117 -1.54411,0.47619 -2.0203,0 -0.47619,-0.47619 0.37355,-1.45997 0,-2.02031 -0.0627,-2.84432 -2.27754,-0.25723 -3.03046,-1.01015 -0.5324,-0.5324 -0.67344,-1.34687 -1.01015,-2.0203 -0.67344,0 -1.54412,0.47619 -2.02031,0 -0.47619,-0.47619 0.47619,-1.54412 0,-2.02031 -0.47619,-0.47619 -1.45997,0.37356 -2.0203,0 -0.62647,-0.41765 -0.59251,-1.39383 -1.01016,-2.0203 -0.33671,-0.33672 -0.67343,-0.67344 -1.01015,-1.01016 -0.33672,0 -0.77206,0.2381 -1.01015,0 -0.33672,-0.67343 -0.67344,-1.34687 -1.01015,-2.0203 -0.33672,0 -0.77206,0.23809 -1.01016,0 -0.53239,-0.5324 -0.47775,-1.48791 -1.01015,-2.02031 -0.5324,-0.53239 -1.30602,-0.77205 -2.0203,-1.01015 -0.31944,-0.10648 -0.85957,0.30117 -1.01016,0 -0.30117,-0.60234 0.47619,-1.54411 0,-2.0203 -0.47619,-0.4762 -1.45997,0.37355 -2.0203,0 -0.62647,-0.41765 -0.47776,-1.48791 -1.01015,-2.02031 -0.47619,-0.47619 -1.54412,0.47619 -2.02031,0 -0.5324,-0.5324 -0.47775,-1.48791 -1.01015,-2.02031 -0.2381,-0.23809 -0.67344,0 -1.01015,0 -0.33672,0 -0.67344,0 -1.01016,0 -5.05076,0 -10.10152,0 -15.15228,0 -5.38748,0 0.67343,0.67344 -2.02031,-2.0203 -1.53283,-1.53283 -2.22553,0.60769 -3.03046,1.01015 -0.30117,0.15059 -0.67343,0 -1.01015,0 -1.34687,0 -2.69374,0 -4.04061,0 -0.67344,0 -1.41797,-0.30117 -2.02031,0 -0.30116,0.15059 0,0.67344 0,1.01015 0,1.68359 0,3.36718 0,5.05077 0,0.33672 0,0.67343 0,1.01015 0,0.67344 -0.21295,1.38143 0,2.02031 0.67006,2.01015 0.94281,0.4714 2.02031,1.01015 0.42592,0.21296 0.58423,0.79719 1.01015,1.01015 0.30117,0.15058 0.77206,-0.23809 1.01016,0 0.23809,0.2381 -0.2381,0.77206 0,1.01015 0.23809,0.2381 0.77205,-0.23809 1.01015,0 0.23809,0.2381 -0.2381,0.77206 0,1.01016 0.23517,0.23517 1.59892,-0.2107 2.0203,0 4.20402,2.102 -1.07989,-0.0697 1.01016,2.0203 0.53239,0.5324 1.30601,0.77206 2.0203,1.01015 0.31944,0.10648 0.67344,0 1.01015,0 0.33672,0 0.77206,-0.23809 1.01016,0 0.23809,0.2381 -0.2381,0.77206 0,1.01016 0.23809,0.23809 0.70898,-0.15059 1.01015,0 0.42592,0.21295 0.58423,0.79719 1.01015,1.01015 1.39336,0.69668 0.90355,-1.22335 2.02031,1.01015 0.15058,0.30117 -0.2381,0.77206 0,1.01015 0.23517,0.23517 1.59891,-0.21069 2.0203,0 0.42592,0.21296 0.58424,0.7972 1.01015,1.01016 0.30117,0.15058 0.70899,-0.15059 1.01016,0 0.85183,0.42591 1.16847,1.59438 2.0203,2.0203 0.30117,0.15059 0.67344,0 1.01015,0 0.67344,0.33672 1.39384,0.59251 2.02031,1.01015 0.39621,0.26415 0.67343,0.67344 1.01015,1.01016 0.67344,0.67343 1.34687,1.34687 2.02031,2.0203 0.33671,0.33672 0.58423,0.79719 1.01015,1.01015 0.30117,0.15059 0.77206,-0.23809 1.01015,0 0.2381,0.2381 -0.23809,0.77206 0,1.01016 0.2381,0.23809 0.70898,-0.15059 1.01015,0 2.23351,1.11675 0.31348,0.62694 1.01016,2.0203 0.21296,0.42592 0.67343,0.67344 1.01015,1.01015 2.31611,2.31612 -0.63888,-0.42591 3.03046,2.02031 0.39621,0.26414 0.67343,0.67343 1.01015,1.01015 1.34687,1.01015 2.56889,2.21284 4.04061,3.03046 1.58509,0.88061 3.42892,1.20938 5.05076,2.0203 1.3429,0.67145 0.67741,1.34886 2.02031,2.02031 0.30117,0.15058 0.70898,-0.15059 1.01015,0 0.85184,0.42592 1.16847,1.59439 2.0203,2.0203 0.95239,0.47619 2.07808,0.53397 3.03046,1.01016 0.061,0.0305 1.9018,1.93142 2.02031,2.0203 0.97124,0.72843 1.94457,1.47737 3.03046,2.02031 0.30116,0.15058 0.77205,-0.2381 1.01015,0 0.23809,0.23809 -0.2381,0.77205 0,1.01015 0.23809,0.23809 0.77205,-0.2381 1.01015,0 0.2381,0.23809 -0.2381,0.77206 0,1.01015 2.09004,2.09004 -0.0817,-3.19386 2.02031,1.01015 0.15058,0.30117 -0.15059,0.70899 0,1.01016 0.21295,0.42591 0.67343,0.67343 1.01015,1.01015 0.33672,0.33672 0.67343,0.67343 1.01015,1.01015 0.33672,0.33672 0.67344,0.67344 1.01015,1.01015 0.33672,0.33672 0.58424,0.7972 1.01016,1.01016 0.30116,0.15058 0.67343,0 1.01015,0 0.67343,0 1.34687,0 2.0203,0 1.34687,0 2.69374,0 4.04061,0 1.34687,0 2.7199,-0.26415 4.04061,0 0.46695,0.0934 0.54818,0.89466 1.01016,1.01015 0.97999,0.245 2.03405,-0.16607 3.03045,0 1.05031,0.17505 1.98634,0.80133 3.03046,1.01015 0.66036,0.13207 1.38143,-0.21296 2.02031,0 0.45175,0.15059 0.54818,0.89466 1.01015,1.01016 0.97999,0.24499 2.0203,0 3.03046,0 1.34687,0 2.69374,0 4.04061,0 1.01015,0 2.0203,0 3.03045,0 0.33672,0 0.70899,-0.15059 1.01016,0 0.85183,0.42591 1.16847,1.59438 2.0203,2.0203 0.30117,0.15058 0.67344,0 1.01015,0 0.33672,0 0.67344,0 1.01016,0 0.33671,0 0.70898,-0.15058 1.01015,0 0.42592,0.21296 0.60182,0.76515 1.01015,1.01015 1.29125,0.77475 2.73317,1.2732 4.04061,2.02031 1.05409,0.60234 1.94458,1.47736 3.03046,2.0203 4.8828,2.4414 1.1982,0.23964 5.05076,1.01016 1.04412,0.20882 1.98015,0.8351 3.03046,1.01015 0.99641,0.16607 2.02031,0 3.03046,0 0.33672,0 1.34687,0 1.01015,0 -0.67343,0 -1.54411,0.47619 -2.0203,0 -0.4762,-0.47619 0,-1.34687 0,-2.02031 0,-0.67343 0,-1.34687 0,-2.0203 0,-0.33672 0.30116,-0.85957 0,-1.01015 -0.60234,-0.30117 -1.54412,0.47619 -2.02031,0 0,-3.94612 0.60234,-0.40782 -2.0203,-3.03046 -0.46104,-0.46104 0.52025,-1.76018 0,-2.02031 -0.60234,-0.30117 -1.34687,0 -2.02031,0 -0.33672,-0.67343 -0.47776,-1.48791 -1.01015,-2.0203 -0.2381,-0.2381 -0.67344,0 -1.01015,0 -0.33672,0 -0.67344,0 -1.01016,0 -0.33671,0 -0.77205,0.23809 -1.01015,0 -0.5324,-0.5324 -0.47776,-1.48791 -1.01015,-2.02031 -0.2381,-0.23809 -0.67344,0 -1.01016,0 -0.67343,-0.67343 -1.49201,-1.22787 -2.0203,-2.0203 -0.18678,-0.28017 0.30117,-0.85957 0,-1.01016 -0.60234,-0.30116 -1.54411,0.4762 -2.02031,0 -0.47619,-0.47619 0.37356,-1.45997 0,-2.0203 -0.0627,-2.84433 -2.27753,-0.25723 -3.03045,-1.01015 -0.5324,-0.5324 -0.67344,-1.34687 -1.01016,-2.02031 -0.33671,-0.67343 -0.77205,-1.30602 -1.01015,-2.0203 -0.10648,-0.31944 0.2381,-0.77206 0,-1.01016 -0.5324,-0.53239 -1.48791,-0.47775 -2.0203,-1.01015 -0.5324,-0.5324 -0.47776,-1.48791 -1.01016,-2.0203 -0.23809,-0.2381 -0.67343,0 -1.01015,0 -0.33672,-0.67344 -0.77206,-1.30602 -1.01015,-2.02031 -0.10648,-0.31944 0.30117,-0.85957 0,-1.01015 -0.60234,-0.30117 -1.34687,0 -2.02031,0 -0.33671,0 -1.01015,0.33672 -1.01015,0 0,-0.33672 0.72999,-0.18678 1.01015,0 0.79243,0.52828 1.20365,1.53031 2.02031,2.0203 0.91305,0.54784 2.10596,0.48187 3.03046,1.01016 1.46176,0.83529 2.50793,2.33378 4.04061,3.03045 2.23162,1.01438 4.7061,1.37532 7.07106,2.02031 1.33941,0.36529 2.66301,0.83795 4.04062,1.01015 1.33646,0.16706 2.70197,-0.14873 4.04061,0 1.70642,0.18961 3.35108,0.76734 5.05076,1.01015 0.66666,0.0952 1.34687,0 2.0203,0 2.35703,0 4.71405,0 7.07107,0 1.34687,0 2.69374,0 4.04061,0 0.33672,0 0.77206,-0.23809 1.01015,0 0.2381,0.2381 -0.23809,0.77206 0,1.01016 0.2381,0.23809 0.67344,0 1.01016,0 0.33671,0 0.67343,0 1.01015,0 0.33672,0 0.77206,-0.2381 1.01015,0 0.2381,0.23809 -0.23809,0.77205 0,1.01015 0.2381,0.23809 0.77206,-0.2381 1.01015,0 0.2381,0.23809 -0.23809,0.77206 0,1.01015 0.2381,0.2381 0.70899,-0.15058 1.01016,0 0.42591,0.21296 0.58423,0.7972 1.01015,1.01015 0.10785,0.0539 1.81553,-0.0512 2.0203,0 1.03301,0.25826 1.99746,0.75191 3.03046,1.01016 0.32667,0.0817 0.67344,0 1.01015,0 0.33672,0 0.67344,0 1.01016,0 1.68358,0 3.36717,0 5.05076,0 0.33672,0 0.67343,0 1.01015,0 0.33672,0 0.70899,-0.15059 1.01015,0 0.42592,0.21296 0.58424,0.79719 1.01016,1.01015 0.30117,0.15058 0.67343,0 1.01015,0 0.67039,0 1.34991,0 2.0203,0 0.33672,0 0.69072,-0.10648 1.01016,0 0.71428,0.2381 1.30602,0.77206 2.0203,1.01015 0.31944,0.10648 0.77206,-0.23809 1.01015,0 0.2381,0.2381 -0.23809,0.77206 0,1.01015 0.2381,0.2381 0.77206,-0.23809 1.01016,0 0.23809,0.2381 -0.2381,0.77206 0,1.01016 0.23809,0.23809 0.67343,0 1.01015,0 0.67039,0 1.34991,0 2.02031,0 3.36717,0 6.73435,0 10.10152,0 0.33672,0 0.67344,0 1.01015,0 0.33672,0 0.77206,-0.2381 1.01016,0 0.23809,0.23809 -0.33672,1.01015 0,1.01015 1.71692,0 3.36717,-0.67344 5.05076,-1.01015 z"
         style="fill:#f2d87e;fill-opacity:1;stroke:none;filter:url(#filter3994)" />
      <path
         transform="matrix(0.96795447,0,0,0.96795447,8.9981781,352.45019)"
         inkscape:connector-curvature="0"
         id="path3998"
         d="m 13.131983,398.79348 c 1.088193,3.19268 1.010153,3.50497 1.010153,6.06092 0,0.33671 -0.10648,0.69071 0,1.01015 0.238095,0.71428 0.772057,1.30602 1.010152,2.0203 0.10648,0.31944 -0.150584,0.70899 0,1.01016 0.212959,0.42591 0.797194,0.58423 1.010153,1.01015 0.210694,0.42139 -0.23517,1.78513 0,2.0203 0.238095,0.2381 0.772057,-0.23809 1.010152,0 0.238095,0.2381 -0.150584,0.70899 0,1.01016 3.350254,3.35025 -0.47619,-0.95238 1.010152,2.0203 0.425918,0.85184 1.594388,1.16847 2.020306,2.02031 0.150584,0.30117 -0.150585,0.70898 0,1.01015 2.311535,4.62307 -0.418681,-4.2865 2.020305,3.03046 0.106479,0.31944 -0.238096,0.77205 0,1.01015 0.238095,0.2381 0.772057,-0.2381 1.010152,0 0.238095,0.2381 0,0.67343 0,1.01015 0,0.67344 -0.212959,1.38143 0,2.02031 0.150585,0.45175 0.797194,0.58423 1.010153,1.01015 0.150584,0.30117 0,0.67343 0,1.01015 0,1.01016 0,2.02031 0,3.03046 0,0.33672 -0.150585,0.70898 0,1.01015 0.212959,0.42592 0.797193,0.58424 1.010152,1.01016 0.150585,0.30116 0,0.67343 0,1.01015 0,0.67343 0,1.34687 0,2.0203 0,0.33672 -0.106479,0.69072 0,1.01016 0.238096,0.71428 0.772058,1.30601 1.010153,2.0203 0.106479,0.31944 0,0.67344 0,1.01015 0,0.33672 0,0.67344 0,1.01016 0,1.34687 0,2.69374 0,4.04061 0,0.67343 0.47619,1.54411 0,2.0203 -0.476191,0.47619 -1.34687,0 -2.020305,0 -0.336718,0 -0.772058,-0.23809 -1.010153,0 -0.238095,0.2381 0.301169,0.85957 0,1.01015 -0.602338,0.30117 -1.34687,0 -2.020305,0 -0.336717,0 -0.673435,0 -1.010152,0 -0.336718,0 -0.772058,-0.23809 -1.010153,0 -0.238095,0.2381 0.301169,0.85957 0,1.01016 -0.602339,0.30117 -1.34687,0 -2.020305,0 -0.336717,0 -0.859568,0.30117 -1.010152,0 -0.30117,-0.60234 0,-1.34687 0,-2.02031 0,-2.0203 0,-4.04061 0,-6.06091 0,-0.67344 0,-1.34687 0,-2.02031 0,-0.33672 0.238095,-0.77206 0,-1.01015 -0.532397,-0.5324 -1.30602,-0.77206 -2.020305,-1.01015 -0.319439,-0.10648 -0.859568,0.30116 -1.010153,0 -0.301169,-0.60234 0,-1.34687 0,-2.02031 0,-0.67343 0,-1.34687 0,-2.0203 0,-2.69374 0,-5.38749 0,-8.08123 0,-0.67343 0,-1.34687 0,-2.0203 0,-0.33672 0.301169,-0.85957 0,-1.01015 -0.602339,-0.30117 -1.544115,0.47619 -2.020305,0 -0.47619,-0.47619 0,-1.34687 0,-2.02031 0,-0.67343 0,-1.34687 0,-2.0203 0,-3.03046 0,-6.06092 0,-9.09138 0,-0.67343 0,-1.34687 0,-2.0203 0,-0.67344 -0.185007,-1.37278 0,-2.02031 0.498146,-1.74351 1.34687,-3.36717 2.020305,-5.05076 z"
         style="fill:#b9a02a;fill-opacity:1;stroke:none;filter:url(#filter4024)" />
      <path
         transform="matrix(0.96795447,0,0,0.96795447,8.9981781,352.45019)"
         inkscape:connector-curvature="0"
         id="path3880"
         d="m 35.292205,374.61296 c -1.692247,-4.52568 -13.043368,-1.27486 -13.131983,-1.4521 -0.687649,-1.37529 -2.179932,-1.78265 -3.4724,-1.13642 -1.849612,0.92481 -0.04656,2.50881 -1.136421,3.59867 -1.807619,1.80762 -4.178098,3.16795 -5.934647,4.92449 -1.7544912,1.7545 -4.7452431,-0.11611 -5.9977805,1.13643 -3.6515266,3.65152 2.659217,11.81149 -3.8512065,13.25825 -2.9357401,0.65238 -1.20552936,13.14341 -0.6313454,13.25825 1.7053453,0.34107 3.5943645,-0.31663 5.3033009,0.0631 2.1534344,0.47855 5.8843995,-2.30517 7.5761445,-3.53553 2.338934,-1.70104 -1.090928,-4.21237 0.315672,-5.61897 1.583555,-1.58356 5.462047,-0.9087 7.007934,-2.84106 1.947577,-2.43447 3.292615,-3.94696 4.861359,-6.69226 2.362413,-4.13422 13.46862,-8.39701 9.091373,-14.96288 z"
         style="fill:#000000;stroke:#000000;stroke-width:1px;stroke-linecap:butt;stroke-linejoin:miter;stroke-opacity:1;filter:url(#filter3894)" />
      <path
         transform="matrix(0.96795447,0,0,0.96795447,8.9981781,352.45019)"
         inkscape:connector-curvature="0"
         id="path4052"
         d="m 578.81741,495.76813 c -6.35227,-0.94112 3.24567,8.44043 -0.0718,1.83086 -0.17343,-0.59411 -0.18849,-1.25705 0.0718,-1.83086 z"
         style="fill:#743e03;fill-opacity:1;stroke:none;filter:url(#filter4114)" />
      <path
         transform="matrix(0.96795447,0,0,0.96795447,-45.757596,360.76133)"
         d="m 597.00014,499.55621 c 0,0.69737 -0.45226,1.26269 -1.01015,1.26269 -0.55789,0 -1.01015,-0.56532 -1.01015,-1.26269 0,-0.69736 0.45226,-1.26269 1.01015,-1.26269 0.55789,0 1.01015,0.56533 1.01015,1.26269 z"
         sodipodi:ry="1.2626907"
         sodipodi:rx="1.0101526"
         sodipodi:cy="499.55621"
         sodipodi:cx="595.98999"
         id="path4118"
         style="opacity:0.93333333;fill:#743e03;fill-opacity:1;stroke:none;filter:url(#filter4133)"
         sodipodi:type="arc" />
      <path
         transform="matrix(0.29063693,0,0,0.41060324,436.42093,622.97782)"
         inkscape:connector-curvature="0"
         id="path4127"
         d="m 583.3631,515.4661 c -5.44014,1.69834 -3.19766,10.14379 2.4454,8.46863 5.46641,-0.29267 5.38074,-8.56333 -0.4189,-7.99562 -0.68219,-0.1252 -1.36702,-0.25272 -2.0265,-0.47301 z"
         style="fill:#936211;fill-opacity:1;stroke:none;filter:url(#filter4145)" />
      <path
         sodipodi:nodetypes="ccc"
         transform="matrix(-0.96795447,0,0,-0.96795447,1098.6731,1307.4186)"
         style="fill:#743e03;fill-opacity:1;stroke:none;filter:url(#filter4114)"
         d="m 578.81741,495.76813 c -6.35227,-0.94112 1.22536,8.94551 -2.09211,2.33594 -0.17343,-0.59411 1.83182,-1.76213 2.09211,-2.33594 z"
         id="path4158"
         inkscape:connector-curvature="0" />
      <path
         transform="matrix(0.96795447,0,0,0.96795447,8.9981781,352.45019)"
         sodipodi:nodetypes="ccccccccc"
         inkscape:connector-curvature="0"
         id="path4160"
         d="m 624.28571,310.93361 c -3.21142,7.84591 -4.65595,13.18068 -9.96624,18.34534 0.37237,9.71513 1.27016,9.14921 -3.05429,16.39289 -6.81182,4.34173 -16.94922,19.68291 -21.2885,33.07085 4.66856,11.12579 6.75848,-3.67742 12.31233,-9.05411 4.72408,0.53841 10.07459,11.73286 12.49586,2.74373 6.99157,-7.50654 18.59539,-47.48064 19.78874,-56.62692 0.62667,-8.03581 -14.92895,12.9054 -13.84937,4.94682 0.78757,-3.40059 2.02075,-6.68961 3.56147,-9.8186 z"
         style="fill:#af9926;fill-opacity:1;stroke:none;filter:url(#filter4184)" />
    </g>
    <path
       sodipodi:type="arc"
       style="fill:#4d4d4d;fill-opacity:0.83137255"
       id="path3191"
       sodipodi:cx="396.98996"
       sodipodi:cy="536.87311"
       sodipodi:rx="1.0101526"
       sodipodi:ry="4.0406103"
       d="m 398.00011,536.87311 a 1.0101526,4.0406103 0 1 1 -0.32929,-2.98486 l -0.68086,2.98486 z"
       transform="matrix(0.56824547,0,0,0.56824547,113.47835,735.25437)"
       sodipodi:start="0"
       sodipodi:end="5.452023" />
  </g>
</svg>
